<svg width="14" height="14" viewBox="0 0 14 14" fill="none" xmlns="http://www.w3.org/2000/svg">
<path fill-rule="evenodd" clip-rule="evenodd" d="M0.333008 7.00001C0.333008 3.31811 3.31777 0.333344 6.99967 0.333344C8.06281 0.333344 9.06961 0.582683 9.96301 1.02668C10.2927 1.19054 10.4272 1.59066 10.2633 1.92038C10.0995 2.2501 9.69934 2.38456 9.36967 2.2207C8.65648 1.86628 7.85234 1.66668 6.99967 1.66668C4.05415 1.66668 1.66634 4.05449 1.66634 7.00001C1.66634 9.94554 4.05415 12.3333 6.99967 12.3333C9.94521 12.3333 12.333 9.94554 12.333 7.00001C12.333 6.79921 12.3219 6.60121 12.3004 6.40661C12.2599 6.04061 12.5239 5.71114 12.8898 5.67074C13.2557 5.63026 13.5852 5.89414 13.6257 6.26008C13.6525 6.50328 13.6663 6.75014 13.6663 7.00001C13.6663 10.6819 10.6815 13.6667 6.99967 13.6667C3.31777 13.6667 0.333008 10.6819 0.333008 7.00001ZM13.4711 1.86194C13.7314 2.12229 13.7314 2.5444 13.4711 2.80475L7.47107 8.80474C7.21074 9.06508 6.78861 9.06508 6.52827 8.80474L4.52827 6.80474C4.26792 6.54441 4.26792 6.12228 4.52827 5.86194C4.78862 5.60159 5.21073 5.60159 5.47108 5.86194L6.99967 7.39054L12.5283 1.86194C12.7886 1.60159 13.2107 1.60159 13.4711 1.86194Z" fill="#F2C94C"/>
</svg>
