<svg width="48" height="122" viewBox="0 0 48 122" fill="none" xmlns="http://www.w3.org/2000/svg">
<circle cx="24" cy="98" r="23.5" transform="rotate(-90 24 98)" stroke="#F2C94C"/>
<path d="M22.16 96.408L22.16 91.048L22.792 91.048C23.544 91.048 24.248 91.176 24.904 91.432C25.5547 91.6827 26.128 92.0427 26.624 92.512C27.1147 92.9813 27.4987 93.5387 27.776 94.184C28.0533 94.824 28.192 95.5307 28.192 96.304C28.192 97.0987 28.0507 97.824 27.768 98.48C27.4853 99.136 27.0933 99.7013 26.592 100.176C26.0907 100.651 25.5093 101.019 24.848 101.28C24.1813 101.536 23.4693 101.664 22.712 101.664C21.96 101.664 21.2533 101.536 20.592 101.28C19.9253 101.019 19.344 100.651 18.848 100.176C18.3467 99.7013 17.9547 99.136 17.672 98.48C17.3893 97.824 17.248 97.0987 17.248 96.304C17.248 95.6907 17.3147 95.144 17.448 94.664C17.5813 94.184 17.7627 93.7653 17.992 93.408C18.216 93.0453 18.4667 92.7333 18.744 92.472C19.016 92.2053 19.2907 91.984 19.568 91.808L20.48 93.68C20.1067 93.936 19.7867 94.2773 19.52 94.704C19.2533 95.1253 19.12 95.6587 19.12 96.304C19.12 96.784 19.216 97.2267 19.408 97.632C19.5947 98.032 19.8533 98.3787 20.184 98.672C20.5147 98.96 20.8987 99.184 21.336 99.344C21.768 99.504 22.2267 99.584 22.712 99.584C23.2027 99.584 23.664 99.504 24.096 99.344C24.528 99.184 24.912 98.96 25.248 98.672C25.5787 98.3787 25.8373 98.032 26.024 97.632C26.2107 97.2267 26.304 96.784 26.304 96.304C26.304 95.8667 26.24 95.4693 26.112 95.112C25.984 94.7547 25.8027 94.4453 25.568 94.184C25.3333 93.9173 25.0587 93.7067 24.744 93.552C24.424 93.3973 24.08 93.3093 23.712 93.288L23.712 96.408L22.16 96.408ZM25.168 88.0957C25.4667 88.0797 25.7333 87.9997 25.968 87.8557C26.2027 87.7117 26.3867 87.5037 26.52 87.2317C26.6533 86.9544 26.72 86.6237 26.72 86.2397C26.72 85.8931 26.6773 85.5891 26.592 85.3277C26.5067 85.0611 26.4027 84.8371 26.28 84.6557C26.152 84.4691 26.0293 84.3304 25.912 84.2397L27.16 83.3997C27.3467 83.5491 27.52 83.7491 27.68 83.9997C27.8347 84.2451 27.9573 84.5597 28.048 84.9437C28.144 85.3224 28.192 85.7971 28.192 86.3677C28.192 87.0877 28.0507 87.7197 27.768 88.2637C27.4853 88.8077 27.0773 89.2317 26.544 89.5357C26.0107 89.8397 25.376 89.9917 24.64 89.9917C24 89.9917 23.424 89.8557 22.912 89.5837C22.3947 89.3117 21.9867 88.9171 21.688 88.3997C21.3893 87.8771 21.24 87.2504 21.24 86.5197C21.24 85.8317 21.3733 85.2371 21.64 84.7357C21.9013 84.2291 22.2853 83.8371 22.792 83.5597C23.2987 83.2824 23.9173 83.1437 24.648 83.1437C24.6907 83.1437 24.7787 83.1464 24.912 83.1517C25.04 83.1517 25.1253 83.1571 25.168 83.1677L25.168 88.0957ZM23.912 85.0477C23.7413 85.0531 23.5573 85.1064 23.36 85.2077C23.1627 85.3037 22.9947 85.4557 22.856 85.6637C22.7173 85.8717 22.648 86.1491 22.648 86.4957C22.648 86.8424 22.7147 87.1277 22.848 87.3517C22.9813 87.5704 23.1467 87.7357 23.344 87.8477C23.536 87.9597 23.7253 88.0237 23.912 88.0397L23.912 85.0477ZM21.432 82.3396L21.432 81.1556L18.736 81.1556L18.736 79.1396L21.432 79.1396L21.432 77.5876L23.12 77.5876L23.12 79.1396L25.496 79.1396C25.8107 79.1396 26.056 79.089 26.232 78.9876C26.4027 78.8863 26.488 78.7263 26.488 78.5076C26.488 78.3423 26.456 78.2063 26.392 78.0996C26.3227 77.993 26.2747 77.929 26.248 77.9076L27.704 77.1876C27.736 77.2196 27.792 77.3236 27.872 77.4996C27.952 77.6703 28.024 77.8916 28.088 78.1636C28.1573 78.4303 28.192 78.7316 28.192 79.0676C28.192 79.6703 28.0187 80.169 27.672 80.5636C27.32 80.9583 26.776 81.1556 26.04 81.1556L23.12 81.1556L23.12 82.3396L21.432 82.3396ZM28 71.9176L21.432 71.9176L21.432 69.8936L28 69.8936L28 71.9176ZM19.736 70.8776C19.736 71.2136 19.6187 71.499 19.384 71.7336C19.1493 71.963 18.8693 72.0776 18.544 72.0776C18.2187 72.0776 17.936 71.9603 17.696 71.7256C17.456 71.491 17.336 71.2083 17.336 70.8776C17.336 70.659 17.392 70.459 17.504 70.2776C17.6107 70.0963 17.7547 69.9496 17.936 69.8376C18.1173 69.7256 18.32 69.6696 18.544 69.6696C18.8693 69.6696 19.1493 69.7896 19.384 70.0296C19.6187 70.2643 19.736 70.547 19.736 70.8776ZM21.24 63.8532C21.24 63.4052 21.3333 62.9679 21.52 62.5412C21.7013 62.1146 21.992 61.7652 22.392 61.4932C22.792 61.2159 23.3147 61.0772 23.96 61.0772L28 61.0772L28 63.1172L24.312 63.1172C23.7733 63.1172 23.3733 63.2452 23.112 63.5012C22.8507 63.7519 22.72 64.0826 22.72 64.4932C22.72 64.7599 22.7947 65.0159 22.944 65.2612C23.088 65.5012 23.2907 65.6986 23.552 65.8532C23.808 66.0026 24.1013 66.0772 24.432 66.0772L28 66.0772L28 68.1092L21.432 68.1092L21.432 66.0772L22.48 66.0772C22.2987 66.0186 22.112 65.8852 21.92 65.6772C21.728 65.4692 21.568 65.2052 21.44 64.8852C21.3067 64.5652 21.24 64.2212 21.24 63.8532ZM21.432 55.9177L21.432 54.7337L18.736 54.7337L18.736 52.7177L21.432 52.7177L21.432 51.1657L23.12 51.1657L23.12 52.7177L25.496 52.7177C25.8107 52.7177 26.056 52.6671 26.232 52.5657C26.4027 52.4644 26.488 52.3044 26.488 52.0857C26.488 51.9204 26.456 51.7844 26.392 51.6777C26.3227 51.5711 26.2747 51.5071 26.248 51.4857L27.704 50.7657C27.736 50.7977 27.792 50.9017 27.872 51.0777C27.952 51.2484 28.024 51.4697 28.088 51.7417C28.1573 52.0084 28.192 52.3097 28.192 52.6457C28.192 53.2484 28.0187 53.7471 27.672 54.1417C27.32 54.5364 26.776 54.7337 26.04 54.7337L23.12 54.7337L23.12 55.9177L21.432 55.9177ZM28.192 46.5244C28.192 47.223 28.0427 47.847 27.744 48.3964C27.4453 48.9404 27.0373 49.367 26.52 49.6764C25.9973 49.9857 25.4027 50.1404 24.736 50.1404C24.0693 50.1404 23.4747 49.9857 22.952 49.6764C22.424 49.367 22.008 48.9404 21.704 48.3964C21.3947 47.847 21.24 47.223 21.24 46.5244C21.24 45.8204 21.3947 45.199 21.704 44.6604C22.008 44.1217 22.424 43.7004 22.952 43.3964C23.4747 43.0924 24.0693 42.9404 24.736 42.9404C25.4027 42.9404 25.9973 43.0924 26.52 43.3964C27.0373 43.7004 27.4453 44.1217 27.744 44.6604C28.0427 45.199 28.192 45.8204 28.192 46.5244ZM26.504 46.5244C26.504 46.1884 26.4293 45.8977 26.28 45.6524C26.1253 45.4017 25.9147 45.2097 25.648 45.0764C25.376 44.9377 25.0693 44.8684 24.728 44.8684C24.3867 44.8684 24.08 44.9377 23.808 45.0764C23.536 45.2097 23.3227 45.4017 23.168 45.6524C23.008 45.8977 22.928 46.1884 22.928 46.5244C22.928 46.8604 23.008 47.1537 23.168 47.4044C23.3227 47.6497 23.536 47.8417 23.808 47.9804C24.08 48.119 24.3867 48.1884 24.728 48.1884C25.0693 48.1884 25.376 48.119 25.648 47.9804C25.9147 47.8417 26.1253 47.6497 26.28 47.4044C26.4293 47.1537 26.504 46.8604 26.504 46.5244ZM24.576 39.6565C25.1627 39.6565 25.632 39.5392 25.984 39.3045C26.3307 39.0698 26.504 38.6912 26.504 38.1685C26.504 37.6405 26.3307 37.2592 25.984 37.0245C25.632 36.7898 25.1627 36.6725 24.576 36.6725L21.432 36.6725L21.432 34.6725L24.808 34.6725C25.4853 34.6725 26.08 34.8085 26.592 35.0805C27.0987 35.3525 27.4933 35.7498 27.776 36.2725C28.0533 36.7898 28.192 37.4218 28.192 38.1685C28.192 38.9098 28.0533 39.5418 27.776 40.0645C27.4933 40.5818 27.0987 40.9765 26.592 41.2485C26.08 41.5205 25.4853 41.6565 24.808 41.6565L21.432 41.6565L21.432 39.6565L24.576 39.6565ZM26.576 29.6456C26.576 29.299 26.5173 29.0163 26.4 28.7976C26.2827 28.579 26.1947 28.435 26.136 28.3656L27.536 27.4216C27.5947 27.4963 27.6773 27.635 27.784 27.8376C27.8907 28.0403 27.984 28.299 28.064 28.6136C28.1493 28.923 28.192 29.2776 28.192 29.6776C28.192 30.371 28.0533 30.9923 27.776 31.5416C27.4933 32.091 27.0933 32.5256 26.576 32.8456C26.0533 33.1603 25.432 33.3176 24.712 33.3176C23.9867 33.3176 23.3653 33.1603 22.848 32.8456C22.3307 32.5256 21.9333 32.091 21.656 31.5416C21.3787 30.9923 21.24 30.371 21.24 29.6776C21.24 29.283 21.2827 28.9336 21.368 28.6296C21.4533 28.3203 21.552 28.0616 21.664 27.8536C21.7707 27.6456 21.8587 27.5016 21.928 27.4216L23.336 28.3896C23.2933 28.427 23.2347 28.499 23.16 28.6056C23.0853 28.7123 23.016 28.8536 22.952 29.0296C22.888 29.2003 22.856 29.4056 22.856 29.6456C22.856 29.939 22.9333 30.219 23.088 30.4856C23.2427 30.747 23.4587 30.9603 23.736 31.1256C24.0133 31.291 24.3387 31.3736 24.712 31.3736C25.0853 31.3736 25.4133 31.291 25.696 31.1256C25.9733 30.9603 26.1893 30.747 26.344 30.4856C26.4987 30.219 26.576 29.939 26.576 29.6456ZM21.24 22.0316C21.24 21.5836 21.3333 21.1463 21.52 20.7196C21.7013 20.293 21.992 19.9436 22.392 19.6716C22.792 19.3943 23.3147 19.2556 23.96 19.2556L28 19.2556L28 21.2956L24.312 21.2956C23.7733 21.2956 23.3733 21.4183 23.112 21.6636C22.8507 21.9036 22.72 22.2263 22.72 22.6316C22.72 22.9036 22.7947 23.165 22.944 23.4156C23.088 23.661 23.2907 23.8636 23.552 24.0236C23.808 24.1783 24.1013 24.2556 24.432 24.2556L28 24.2556L28 26.2956L16.992 26.2956L16.992 24.2556L22.48 24.2556C22.2987 24.2023 22.112 24.0716 21.92 23.8636C21.728 23.6556 21.568 23.3916 21.44 23.0716C21.3067 22.7516 21.24 22.405 21.24 22.0316Z" fill="#2A524C"/>
</svg>
