<svg width="714" height="898" viewBox="0 0 714 898" fill="none" xmlns="http://www.w3.org/2000/svg">
<circle cx="187" cy="112" r="32" fill="#FCF232"/>
<circle cx="424" cy="32" r="32" fill="#F2C94C"/>
<g filter="url(#filter0_f_60_1277)">
<circle cx="512.5" cy="118.5" r="21.5" fill="#F2C94C"/>
</g>
<g filter="url(#filter1_f_60_1277)">
<circle cx="391.5" cy="137.5" r="12.5" fill="#FCF232"/>
</g>
<path style="mix-blend-mode:screen" d="M651.242 425.758C685.902 263.252 582.263 103.418 419.758 68.7577C257.252 34.0975 97.418 137.737 62.7578 300.242C28.0976 462.747 131.737 622.582 294.242 657.242C456.748 691.902 616.582 588.263 651.242 425.758Z" fill="url(#paint0_radial_60_1277)"/>
<path d="M362.889 767.774L290.449 771.212C290.449 771.212 346.728 813.085 362.889 813.085C379.049 813.085 435.328 771.212 435.328 771.212L362.889 767.774Z" fill="url(#paint1_linear_60_1277)"/>
<path style="mix-blend-mode:multiply" opacity="0.3" d="M362.889 767.774L290.449 771.212C290.449 771.212 296.113 776 311.644 786.181C343.942 781.596 368.418 786.923 387.567 802.971C408.896 790.564 435.328 771.212 435.328 771.212L362.889 767.774Z" fill="url(#paint2_linear_60_1277)"/>
<path opacity="0.3" d="M362.889 764.29L290.449 767.729C290.449 767.729 346.728 809.623 362.889 809.623C379.049 809.623 435.328 767.729 435.328 767.729L362.889 764.29Z" fill="url(#paint3_linear_60_1277)"/>
<path d="M284.293 668.004V766.268C284.293 774.988 319.49 782.068 362.891 782.068C406.291 782.068 441.488 774.988 441.488 766.268V668.004H284.293Z" fill="url(#paint4_linear_60_1277)"/>
<path d="M441.51 668.004C441.51 676.724 406.313 683.804 362.912 683.804C319.511 683.804 284.314 676.724 284.314 668.004C284.314 659.283 319.511 652.203 362.912 652.203C406.313 652.203 441.51 659.283 441.51 668.004Z" fill="url(#paint5_linear_60_1277)"/>
<path d="M555.263 384.54C555.263 276.903 467.27 189.832 359.297 191.338C255.616 192.776 170.837 277.105 168.859 380.764C167.736 440.324 193.56 493.884 234.961 530.07C249.075 542.387 260.606 557.446 267.82 574.752C282.946 611.05 279.148 644.876 281.418 654.743C284.452 667.846 306.681 680.186 363.162 680.186C419.644 680.186 437.647 667.846 440.659 654.743C442.344 647.393 440.681 626.761 445.963 601.723C451.852 573.74 467.517 548.927 489.072 530.115C529.64 494.693 555.263 442.617 555.263 384.54Z" fill="url(#paint6_linear_60_1277)"/>
<path d="M278.831 691.963L284.293 687.85C284.293 687.85 315.107 697.469 362.89 697.469C410.674 697.469 441.488 687.85 441.488 687.85L446.95 691.716C446.95 691.716 421.035 702.347 361.969 702.347C302.903 702.347 278.809 691.94 278.809 691.94L278.831 691.963Z" fill="url(#paint7_linear_60_1277)"/>
<path d="M278.83 691.963C278.83 691.963 308.161 702.369 361.99 702.369C415.82 702.369 446.971 691.738 446.971 691.738L441.51 698.75C441.51 698.75 407.122 708.37 362.058 708.37C316.994 708.37 284.314 699.582 284.314 699.582L278.853 691.985L278.83 691.963Z" fill="url(#paint8_linear_60_1277)"/>
<path d="M278.831 712.461L284.293 708.348C284.293 708.348 315.107 717.967 362.89 717.967C410.674 717.967 441.488 708.348 441.488 708.348L446.95 712.213C446.95 712.213 421.035 722.867 361.969 722.867C302.903 722.867 278.809 712.483 278.809 712.483L278.831 712.461Z" fill="url(#paint9_linear_60_1277)"/>
<path d="M278.83 712.461C278.83 712.461 308.161 722.845 361.99 722.845C415.82 722.845 446.971 712.191 446.971 712.191L441.51 719.203C441.51 719.203 407.122 728.823 362.058 728.823C316.994 728.823 284.314 720.035 284.314 720.035L278.853 712.438L278.83 712.461Z" fill="url(#paint10_linear_60_1277)"/>
<path d="M278.831 732.958L284.293 728.845C284.293 728.845 315.107 738.465 362.89 738.465C410.674 738.465 441.488 728.845 441.488 728.845L446.95 732.711C446.95 732.711 421.035 743.365 361.969 743.365C302.903 743.365 278.809 732.958 278.809 732.958H278.831Z" fill="url(#paint11_linear_60_1277)"/>
<path d="M278.83 732.959C278.83 732.959 308.161 743.365 361.99 743.365C415.82 743.365 446.971 732.711 446.971 732.711L441.51 739.724C441.51 739.724 407.122 749.343 362.058 749.343C316.994 749.343 284.314 740.555 284.314 740.555L278.853 732.959H278.83Z" fill="url(#paint12_linear_60_1277)"/>
<path d="M278.831 753.457L284.293 749.344C284.293 749.344 315.107 758.963 362.89 758.963C410.674 758.963 441.488 749.344 441.488 749.344L446.95 753.209C446.95 753.209 421.035 763.863 361.969 763.863C302.903 763.863 278.809 753.457 278.809 753.457H278.831Z" fill="url(#paint13_linear_60_1277)"/>
<path d="M278.83 753.456C278.83 753.456 308.161 763.863 361.99 763.863C415.82 763.863 446.971 753.209 446.971 753.209L441.51 760.222C441.51 760.222 407.122 769.841 362.058 769.841C316.994 769.841 284.314 761.053 284.314 761.053L278.853 753.456H278.83Z" fill="url(#paint14_linear_60_1277)"/>
<g style="mix-blend-mode:multiply">
<path d="M395.166 535.284C393.301 531.261 382.759 523.507 360.216 523.507C337.673 523.507 327.132 531.261 325.266 535.284C323.401 539.307 341.404 564.435 341.404 564.435C341.404 564.435 346.484 558.232 360.216 558.232C373.949 558.232 379.028 564.435 379.028 564.435C379.028 564.435 397.009 539.307 395.166 535.284Z" fill="url(#paint15_linear_60_1277)"/>
<path d="M352.302 435.874H347.088V525.979H352.302V435.874Z" fill="url(#paint16_linear_60_1277)"/>
<path d="M373.361 435.874H368.146V525.979H373.361V435.874Z" fill="url(#paint17_linear_60_1277)"/>
<path d="M323.828 677.601V605.499C323.828 582.82 340.123 564.458 360.216 564.458C380.31 564.458 396.605 582.843 396.605 605.499V678.455C396.605 678.455 357.901 683.804 323.828 677.623V677.601Z" fill="url(#paint18_linear_60_1277)"/>
<g opacity="0.5">
<path d="M351.498 569.268H345.744V680.163H351.498V569.268Z" fill="url(#paint19_linear_60_1277)"/>
<path d="M374.715 569.268H368.961V680.163H374.715V569.268Z" fill="url(#paint20_linear_60_1277)"/>
</g>
</g>
<circle cx="379.014" cy="623.256" r="47.5" fill="#F2C94C"/>
<circle cx="324.514" cy="573.756" r="30" fill="#F2C94C"/>
<circle cx="405.514" cy="549.756" r="30" fill="#F2C94C"/>
<circle cx="464.014" cy="456.256" r="47.5" fill="#F2C94C"/>
<circle cx="392.014" cy="474.256" r="47.5" fill="#F2C94C"/>
<circle cx="366.014" cy="563.256" r="13.5" fill="#F2C94C"/>
<circle cx="311.5" cy="484.5" r="68.5" fill="#F2C94C"/>
<circle cx="448.014" cy="340.256" r="68.5" fill="#F2C94C"/>
<circle cx="291" cy="397" r="104" fill="#F2C94C"/>
<circle cx="309.514" cy="224.756" r="68" fill="#F2C94C"/>
<path style="mix-blend-mode:screen" opacity="0.6" d="M361.048 675.6C310.95 675.6 290.452 664.048 287.935 653.237C287.463 651.169 287.283 646.742 287.103 641.617C286.496 625.952 285.485 599.767 274 572.19C266.673 554.569 255.008 538.701 239.365 525.035C197.762 488.67 174.5 436.144 175.556 380.898C177.444 281.443 259.907 199.429 359.385 198.036C360.284 198.036 361.161 198.036 362.037 198.036C464.886 198.036 548.564 281.713 548.564 384.562C548.564 438.414 525.279 489.636 484.665 525.103C461.11 545.668 445.445 571.695 439.421 600.374C435.938 616.849 435.398 631.188 434.994 641.64C434.791 646.787 434.634 651.214 434.14 653.26C431.645 664.07 411.124 675.623 361.026 675.623L361.048 675.6Z" fill="url(#paint21_radial_60_1277)"/>
<path style="mix-blend-mode:screen" d="M382.794 562.076C482.034 550.612 553.189 460.868 541.724 361.628C530.259 262.388 440.516 191.232 341.276 202.697C242.036 214.162 170.88 303.906 182.345 403.146C193.81 502.386 283.554 573.541 382.794 562.076Z" fill="url(#paint22_radial_60_1277)"/>
<path opacity="0.7" d="M485.763 512.024C554.095 443.693 554.095 332.906 485.763 264.574C417.432 196.243 306.645 196.243 238.313 264.574C169.982 332.906 169.981 443.693 238.313 512.024C306.644 580.356 417.432 580.356 485.763 512.024Z" fill="url(#paint23_linear_60_1277)"/>
<path opacity="0.7" d="M535.709 332.081C540.991 358.513 540.542 386.495 533.372 414.342C507.884 513.258 407.013 572.774 308.12 547.264C307.311 547.062 306.524 546.792 305.715 546.59C311.873 548.95 318.211 551.017 324.729 552.703C418.296 576.82 513.705 520.518 537.822 426.951C546.183 394.541 544.857 361.906 535.709 332.081Z" fill="url(#paint24_linear_60_1277)"/>
<path opacity="0.7" d="M368.712 225.051C431.464 225.051 486.484 258.113 517.344 307.74C488.193 251.663 429.621 213.342 362.036 213.342C265.413 213.342 187.062 291.67 187.062 388.315C187.062 422.186 196.727 453.787 213.382 480.578C200.84 456.462 193.715 429.086 193.715 400.025C193.715 303.402 272.043 225.051 368.689 225.051H368.712Z" fill="url(#paint25_linear_60_1277)"/>
<path style="mix-blend-mode:screen" opacity="0.5" d="M362.039 563.446C313.064 563.446 269.416 538.049 269.416 538.049C305.242 567.425 280.901 644.921 308.591 661.149C336.281 677.376 362.039 670.858 362.039 670.858C362.039 670.858 387.796 677.399 415.486 661.149C443.176 644.921 418.835 567.402 454.661 538.049C454.661 538.049 411.036 563.446 362.039 563.446Z" fill="url(#paint26_linear_60_1277)"/>
<path d="M362.468 563.222C317.179 563.222 276.857 541.6 276.857 541.6C309.964 570.684 287.466 643.887 313.066 659.957C338.666 676.028 362.468 669.555 362.468 669.555C362.468 669.555 386.269 676.028 411.869 659.957C437.469 643.887 414.971 570.661 448.078 541.6C448.078 541.6 407.734 563.222 362.468 563.222Z" fill="url(#paint27_linear_60_1277)"/>
<path opacity="0.3" d="M408.381 257.821C430.677 290.636 409.483 343.903 361.047 376.785C312.612 409.667 255.276 409.735 233.003 376.92C210.707 344.106 231.902 290.838 280.337 257.934C328.772 225.052 386.108 224.984 408.381 257.799V257.821Z" fill="white"/>
<path opacity="0.7" d="M226.87 326.17C190.055 388.652 219.048 481.275 249.188 505.819C210.17 409.487 267.641 326.17 267.641 326.17H226.87Z" fill="url(#paint28_linear_60_1277)"/>
<path d="M233.051 317.382C233.051 317.382 248.941 290.658 260.943 279.713C260.943 279.713 282.138 276.926 302.231 276.926C284.385 297.019 273.664 317.382 273.664 317.382H233.051Z" fill="url(#paint29_linear_60_1277)"/>
<g opacity="0.5">
<path d="M549.753 862.936C549.753 881.973 464.57 897.391 359.496 897.391C254.421 897.391 169.238 881.973 169.238 862.936C169.238 843.899 254.421 828.481 359.496 828.481C464.57 828.481 549.753 843.922 549.753 862.936Z" fill="url(#paint30_radial_60_1277)"/>
</g>
<defs>
<filter id="filter0_f_60_1277" x="487" y="93" width="51" height="51" filterUnits="userSpaceOnUse" color-interpolation-filters="sRGB">
<feFlood flood-opacity="0" result="BackgroundImageFix"/>
<feBlend mode="normal" in="SourceGraphic" in2="BackgroundImageFix" result="shape"/>
<feGaussianBlur stdDeviation="2" result="effect1_foregroundBlur_60_1277"/>
</filter>
<filter id="filter1_f_60_1277" x="375" y="121" width="33" height="33" filterUnits="userSpaceOnUse" color-interpolation-filters="sRGB">
<feFlood flood-opacity="0" result="BackgroundImageFix"/>
<feBlend mode="normal" in="SourceGraphic" in2="BackgroundImageFix" result="shape"/>
<feGaussianBlur stdDeviation="2" result="effect1_foregroundBlur_60_1277"/>
</filter>
<radialGradient id="paint0_radial_60_1277" cx="0" cy="0" r="1" gradientUnits="userSpaceOnUse" gradientTransform="translate(356.983 363.008) scale(300.86 300.86)">
<stop stop-color="#FEAC00"/>
<stop offset="0.44" stop-color="#FEAC00" stop-opacity="0.55"/>
<stop offset="1" stop-color="#FEAC00" stop-opacity="0"/>
</radialGradient>
<linearGradient id="paint1_linear_60_1277" x1="322.657" y1="747.613" x2="437.036" y2="818.209" gradientUnits="userSpaceOnUse">
<stop stop-color="#333333"/>
<stop offset="0.21" stop-color="#353535"/>
<stop offset="0.35" stop-color="#3E3E3E"/>
<stop offset="0.48" stop-color="#4E4E4E"/>
<stop offset="0.59" stop-color="#646464"/>
<stop offset="0.7" stop-color="#808080"/>
<stop offset="0.8" stop-color="#A3A3A3"/>
<stop offset="0.9" stop-color="#CCCCCC"/>
<stop offset="0.99" stop-color="#FAFAFA"/>
<stop offset="1" stop-color="white"/>
</linearGradient>
<linearGradient id="paint2_linear_60_1277" x1="322.792" y1="747.388" x2="437.171" y2="818.007" gradientUnits="userSpaceOnUse">
<stop stop-color="#333333"/>
<stop offset="0.21" stop-color="#353535"/>
<stop offset="0.35" stop-color="#3E3E3E"/>
<stop offset="0.48" stop-color="#4E4E4E"/>
<stop offset="0.59" stop-color="#646464"/>
<stop offset="0.7" stop-color="#808080"/>
<stop offset="0.8" stop-color="#A3A3A3"/>
<stop offset="0.9" stop-color="#CCCCCC"/>
<stop offset="0.99" stop-color="#FAFAFA"/>
<stop offset="1" stop-color="white"/>
</linearGradient>
<linearGradient id="paint3_linear_60_1277" x1="346.144" y1="824.008" x2="356.843" y2="788.069" gradientUnits="userSpaceOnUse">
<stop offset="0.3" stop-color="white"/>
<stop offset="0.36" stop-color="white" stop-opacity="0.88"/>
<stop offset="0.54" stop-color="white" stop-opacity="0.57"/>
<stop offset="0.7" stop-color="white" stop-opacity="0.33"/>
<stop offset="0.84" stop-color="white" stop-opacity="0.15"/>
<stop offset="0.94" stop-color="white" stop-opacity="0.04"/>
<stop offset="1" stop-color="white" stop-opacity="0"/>
</linearGradient>
<linearGradient id="paint4_linear_60_1277" x1="277.887" y1="725.047" x2="455.603" y2="725.047" gradientUnits="userSpaceOnUse">
<stop stop-color="#333333"/>
<stop offset="0.03" stop-color="#494949"/>
<stop offset="0.16" stop-color="#969696"/>
<stop offset="0.26" stop-color="#CECECE"/>
<stop offset="0.33" stop-color="#F1F1F1"/>
<stop offset="0.37" stop-color="white"/>
<stop offset="0.61" stop-color="#666666"/>
<stop offset="0.63" stop-color="#787878"/>
<stop offset="0.67" stop-color="#A8A8A8"/>
<stop offset="0.71" stop-color="#CECECE"/>
<stop offset="0.74" stop-color="#E8E8E8"/>
<stop offset="0.77" stop-color="#F9F9F9"/>
<stop offset="0.8" stop-color="white"/>
<stop offset="0.85" stop-color="#D7D7D7"/>
<stop offset="0.9" stop-color="#B5B5B5"/>
<stop offset="0.94" stop-color="#A0A0A0"/>
<stop offset="0.97" stop-color="#999999"/>
</linearGradient>
<linearGradient id="paint5_linear_60_1277" x1="315.601" y1="700.953" x2="416.854" y2="630.447" gradientUnits="userSpaceOnUse">
<stop stop-color="#333333"/>
<stop offset="0.09" stop-color="#494949"/>
<stop offset="0.42" stop-color="#969696"/>
<stop offset="0.69" stop-color="#CECECE"/>
<stop offset="0.89" stop-color="#F1F1F1"/>
<stop offset="1" stop-color="white"/>
</linearGradient>
<linearGradient id="paint6_linear_60_1277" x1="212.148" y1="573.336" x2="569.355" y2="219.388" gradientUnits="userSpaceOnUse">
<stop stop-color="#FEAC00"/>
<stop offset="1" stop-color="#FEAC00" stop-opacity="0"/>
</linearGradient>
<linearGradient id="paint7_linear_60_1277" x1="258.895" y1="702.549" x2="478.191" y2="680.77" gradientUnits="userSpaceOnUse">
<stop stop-color="#333333"/>
<stop offset="0.09" stop-color="#494949"/>
<stop offset="0.42" stop-color="#969696"/>
<stop offset="0.69" stop-color="#CECECE"/>
<stop offset="0.89" stop-color="#F1F1F1"/>
<stop offset="1" stop-color="white"/>
</linearGradient>
<linearGradient id="paint8_linear_60_1277" x1="285.618" y1="704.414" x2="504.914" y2="682.658" gradientUnits="userSpaceOnUse">
<stop stop-color="#333333"/>
<stop offset="0.09" stop-color="#494949"/>
<stop offset="0.42" stop-color="#969696"/>
<stop offset="0.69" stop-color="#CECECE"/>
<stop offset="0.89" stop-color="#F1F1F1"/>
<stop offset="1" stop-color="white"/>
</linearGradient>
<linearGradient id="paint9_linear_60_1277" x1="258.895" y1="723.047" x2="478.191" y2="701.29" gradientUnits="userSpaceOnUse">
<stop stop-color="#333333"/>
<stop offset="0.09" stop-color="#494949"/>
<stop offset="0.42" stop-color="#969696"/>
<stop offset="0.69" stop-color="#CECECE"/>
<stop offset="0.89" stop-color="#F1F1F1"/>
<stop offset="1" stop-color="white"/>
</linearGradient>
<linearGradient id="paint10_linear_60_1277" x1="285.618" y1="724.912" x2="504.914" y2="703.156" gradientUnits="userSpaceOnUse">
<stop stop-color="#333333"/>
<stop offset="0.09" stop-color="#494949"/>
<stop offset="0.42" stop-color="#969696"/>
<stop offset="0.69" stop-color="#CECECE"/>
<stop offset="0.89" stop-color="#F1F1F1"/>
<stop offset="1" stop-color="white"/>
</linearGradient>
<linearGradient id="paint11_linear_60_1277" x1="258.895" y1="743.545" x2="478.191" y2="721.788" gradientUnits="userSpaceOnUse">
<stop stop-color="#333333"/>
<stop offset="0.09" stop-color="#494949"/>
<stop offset="0.42" stop-color="#969696"/>
<stop offset="0.69" stop-color="#CECECE"/>
<stop offset="0.89" stop-color="#F1F1F1"/>
<stop offset="1" stop-color="white"/>
</linearGradient>
<linearGradient id="paint12_linear_60_1277" x1="285.618" y1="745.433" x2="504.914" y2="723.654" gradientUnits="userSpaceOnUse">
<stop stop-color="#333333"/>
<stop offset="0.09" stop-color="#494949"/>
<stop offset="0.42" stop-color="#969696"/>
<stop offset="0.69" stop-color="#CECECE"/>
<stop offset="0.89" stop-color="#F1F1F1"/>
<stop offset="1" stop-color="white"/>
</linearGradient>
<linearGradient id="paint13_linear_60_1277" x1="258.895" y1="764.043" x2="478.191" y2="742.286" gradientUnits="userSpaceOnUse">
<stop stop-color="#333333"/>
<stop offset="0.09" stop-color="#494949"/>
<stop offset="0.42" stop-color="#969696"/>
<stop offset="0.69" stop-color="#CECECE"/>
<stop offset="0.89" stop-color="#F1F1F1"/>
<stop offset="1" stop-color="white"/>
</linearGradient>
<linearGradient id="paint14_linear_60_1277" x1="285.618" y1="765.93" x2="504.914" y2="744.174" gradientUnits="userSpaceOnUse">
<stop stop-color="#333333"/>
<stop offset="0.09" stop-color="#494949"/>
<stop offset="0.42" stop-color="#969696"/>
<stop offset="0.69" stop-color="#CECECE"/>
<stop offset="0.89" stop-color="#F1F1F1"/>
<stop offset="1" stop-color="white"/>
</linearGradient>
<linearGradient id="paint15_linear_60_1277" x1="361.273" y1="522.001" x2="357.654" y2="570.526" gradientUnits="userSpaceOnUse">
<stop stop-color="#A67C52"/>
<stop offset="0.12" stop-color="#A67C52" stop-opacity="0.67"/>
<stop offset="0.24" stop-color="#A67C52" stop-opacity="0.38"/>
<stop offset="0.35" stop-color="#A67C52" stop-opacity="0.17"/>
<stop offset="0.44" stop-color="#A67C52" stop-opacity="0.05"/>
<stop offset="0.5" stop-color="#A67C52" stop-opacity="0"/>
</linearGradient>
<linearGradient id="paint16_linear_60_1277" x1="347.088" y1="480.916" x2="352.302" y2="480.916" gradientUnits="userSpaceOnUse">
<stop stop-color="#A67C52"/>
<stop offset="0.17" stop-color="#A67C52" stop-opacity="0.67"/>
<stop offset="0.34" stop-color="#A67C52" stop-opacity="0.38"/>
<stop offset="0.49" stop-color="#A67C52" stop-opacity="0.17"/>
<stop offset="0.61" stop-color="#A67C52" stop-opacity="0.05"/>
<stop offset="0.7" stop-color="#A67C52" stop-opacity="0"/>
</linearGradient>
<linearGradient id="paint17_linear_60_1277" x1="368.146" y1="-80.2141" x2="373.338" y2="-80.2141" gradientUnits="userSpaceOnUse">
<stop stop-color="#A67C52"/>
<stop offset="0.17" stop-color="#A67C52" stop-opacity="0.67"/>
<stop offset="0.34" stop-color="#A67C52" stop-opacity="0.38"/>
<stop offset="0.49" stop-color="#A67C52" stop-opacity="0.17"/>
<stop offset="0.61" stop-color="#A67C52" stop-opacity="0.05"/>
<stop offset="0.7" stop-color="#A67C52" stop-opacity="0"/>
</linearGradient>
<linearGradient id="paint18_linear_60_1277" x1="322.457" y1="622.692" x2="407.46" y2="622.288" gradientUnits="userSpaceOnUse">
<stop stop-color="#A67C52" stop-opacity="0.24"/>
<stop offset="0.02" stop-color="#A67C52" stop-opacity="0.29"/>
<stop offset="0.04" stop-color="#A67C52" stop-opacity="0.44"/>
<stop offset="0.08" stop-color="#A67C52" stop-opacity="0.69"/>
<stop offset="0.12" stop-color="#A67C52"/>
<stop offset="0.21" stop-color="#A67C52" stop-opacity="0.67"/>
<stop offset="0.3" stop-color="#A67C52" stop-opacity="0.38"/>
<stop offset="0.39" stop-color="#A67C52" stop-opacity="0.17"/>
<stop offset="0.45" stop-color="#A67C52" stop-opacity="0.05"/>
<stop offset="0.5" stop-color="#A67C52" stop-opacity="0"/>
<stop offset="0.59" stop-color="#A67C52" stop-opacity="0.02"/>
<stop offset="0.67" stop-color="#A67C52" stop-opacity="0.08"/>
<stop offset="0.74" stop-color="#A67C52" stop-opacity="0.18"/>
<stop offset="0.81" stop-color="#A67C52" stop-opacity="0.33"/>
<stop offset="0.88" stop-color="#A67C52" stop-opacity="0.52"/>
<stop offset="0.94" stop-color="#A67C52" stop-opacity="0.74"/>
<stop offset="1" stop-color="#A67C52"/>
</linearGradient>
<linearGradient id="paint19_linear_60_1277" x1="348.621" y1="680.163" x2="348.621" y2="569.268" gradientUnits="userSpaceOnUse">
<stop offset="0.04" stop-color="#A67C52"/>
<stop offset="0.19" stop-color="#A67C52" stop-opacity="0.67"/>
<stop offset="0.34" stop-color="#A67C52" stop-opacity="0.38"/>
<stop offset="0.47" stop-color="#A67C52" stop-opacity="0.17"/>
<stop offset="0.57" stop-color="#A67C52" stop-opacity="0.05"/>
<stop offset="0.64" stop-color="#A67C52" stop-opacity="0"/>
</linearGradient>
<linearGradient id="paint20_linear_60_1277" x1="371.838" y1="-80.2141" x2="371.838" y2="-80.2141" gradientUnits="userSpaceOnUse">
<stop offset="0.04" stop-color="#A67C52"/>
<stop offset="0.19" stop-color="#A67C52" stop-opacity="0.67"/>
<stop offset="0.34" stop-color="#A67C52" stop-opacity="0.38"/>
<stop offset="0.47" stop-color="#A67C52" stop-opacity="0.17"/>
<stop offset="0.57" stop-color="#A67C52" stop-opacity="0.05"/>
<stop offset="0.64" stop-color="#A67C52" stop-opacity="0"/>
</linearGradient>
<radialGradient id="paint21_radial_60_1277" cx="0" cy="0" r="1" gradientUnits="userSpaceOnUse" gradientTransform="translate(362.037 389.934) scale(241.232 241.232)">
<stop offset="0.07" stop-color="#FEAC00" stop-opacity="0"/>
<stop offset="0.15" stop-color="#FEAC00" stop-opacity="0.05"/>
<stop offset="0.3" stop-color="#FEAC00" stop-opacity="0.18"/>
<stop offset="0.5" stop-color="#FEAC00" stop-opacity="0.39"/>
<stop offset="0.75" stop-color="#FEAC00" stop-opacity="0.68"/>
<stop offset="1" stop-color="#FEAC00"/>
</radialGradient>
<radialGradient id="paint22_radial_60_1277" cx="0" cy="0" r="1" gradientUnits="userSpaceOnUse" gradientTransform="translate(276.104 471.679) scale(353.611)">
<stop offset="0.07" stop-color="#FEAC00" stop-opacity="0"/>
<stop offset="0.15" stop-color="#FEAC00" stop-opacity="0.05"/>
<stop offset="0.3" stop-color="#FEAC00" stop-opacity="0.18"/>
<stop offset="0.5" stop-color="#FEAC00" stop-opacity="0.39"/>
<stop offset="0.75" stop-color="#FEAC00" stop-opacity="0.68"/>
<stop offset="1" stop-color="#FEAC00"/>
</radialGradient>
<linearGradient id="paint23_linear_60_1277" x1="152.695" y1="252.573" x2="457.331" y2="450.09" gradientUnits="userSpaceOnUse">
<stop offset="0.3" stop-color="white"/>
<stop offset="0.36" stop-color="white" stop-opacity="0.88"/>
<stop offset="0.54" stop-color="white" stop-opacity="0.57"/>
<stop offset="0.7" stop-color="white" stop-opacity="0.33"/>
<stop offset="0.84" stop-color="white" stop-opacity="0.15"/>
<stop offset="0.94" stop-color="white" stop-opacity="0.04"/>
<stop offset="1" stop-color="white" stop-opacity="0"/>
</linearGradient>
<linearGradient id="paint24_linear_60_1277" x1="527.708" y1="410.949" x2="314.57" y2="564.93" gradientUnits="userSpaceOnUse">
<stop offset="0.3" stop-color="white"/>
<stop offset="0.36" stop-color="white" stop-opacity="0.88"/>
<stop offset="0.54" stop-color="white" stop-opacity="0.57"/>
<stop offset="0.7" stop-color="white" stop-opacity="0.33"/>
<stop offset="0.84" stop-color="white" stop-opacity="0.15"/>
<stop offset="0.94" stop-color="white" stop-opacity="0.04"/>
<stop offset="1" stop-color="white" stop-opacity="0"/>
</linearGradient>
<linearGradient id="paint25_linear_60_1277" x1="157.237" y1="245.572" x2="461.851" y2="443.066" gradientUnits="userSpaceOnUse">
<stop offset="0.3" stop-color="white"/>
<stop offset="0.36" stop-color="white" stop-opacity="0.88"/>
<stop offset="0.54" stop-color="white" stop-opacity="0.57"/>
<stop offset="0.7" stop-color="white" stop-opacity="0.33"/>
<stop offset="0.84" stop-color="white" stop-opacity="0.15"/>
<stop offset="0.94" stop-color="white" stop-opacity="0.04"/>
<stop offset="1" stop-color="white" stop-opacity="0"/>
</linearGradient>
<linearGradient id="paint26_linear_60_1277" x1="254.492" y1="605.094" x2="482.104" y2="605.094" gradientUnits="userSpaceOnUse">
<stop stop-color="#FEAC00"/>
<stop offset="0.04" stop-color="#FEAC00" stop-opacity="0.87"/>
<stop offset="0.1" stop-color="#FEAC00" stop-opacity="0.64"/>
<stop offset="0.17" stop-color="#FEAC00" stop-opacity="0.45"/>
<stop offset="0.24" stop-color="#FEAC00" stop-opacity="0.29"/>
<stop offset="0.31" stop-color="#FEAC00" stop-opacity="0.16"/>
<stop offset="0.37" stop-color="#FEAC00" stop-opacity="0.07"/>
<stop offset="0.43" stop-color="#FEAC00" stop-opacity="0.02"/>
<stop offset="0.48" stop-color="#FEAC00" stop-opacity="0"/>
<stop offset="0.52" stop-color="#FEAC00" stop-opacity="0.05"/>
<stop offset="0.58" stop-color="#FEAC00" stop-opacity="0.18"/>
<stop offset="0.67" stop-color="#FEAC00" stop-opacity="0.39"/>
<stop offset="0.77" stop-color="#FEAC00" stop-opacity="0.68"/>
<stop offset="0.88" stop-color="#FEAC00"/>
</linearGradient>
<linearGradient id="paint27_linear_60_1277" x1="263.035" y1="606.218" x2="473.453" y2="606.218" gradientUnits="userSpaceOnUse">
<stop offset="0.03" stop-color="white"/>
<stop offset="0.04" stop-color="white" stop-opacity="0.98"/>
<stop offset="0.09" stop-color="white" stop-opacity="0.75"/>
<stop offset="0.15" stop-color="white" stop-opacity="0.55"/>
<stop offset="0.2" stop-color="white" stop-opacity="0.38"/>
<stop offset="0.26" stop-color="white" stop-opacity="0.24"/>
<stop offset="0.31" stop-color="white" stop-opacity="0.14"/>
<stop offset="0.37" stop-color="white" stop-opacity="0.06"/>
<stop offset="0.42" stop-color="white" stop-opacity="0.01"/>
<stop offset="0.48" stop-color="white" stop-opacity="0"/>
<stop offset="0.52" stop-color="white" stop-opacity="0.05"/>
<stop offset="0.59" stop-color="white" stop-opacity="0.18"/>
<stop offset="0.69" stop-color="white" stop-opacity="0.39"/>
<stop offset="0.81" stop-color="white" stop-opacity="0.67"/>
<stop offset="0.93" stop-color="white"/>
</linearGradient>
<linearGradient id="paint28_linear_60_1277" x1="271.664" y1="301.154" x2="219.228" y2="471.88" gradientUnits="userSpaceOnUse">
<stop offset="0.3" stop-color="white"/>
<stop offset="0.36" stop-color="white" stop-opacity="0.88"/>
<stop offset="0.54" stop-color="white" stop-opacity="0.57"/>
<stop offset="0.7" stop-color="white" stop-opacity="0.33"/>
<stop offset="0.84" stop-color="white" stop-opacity="0.15"/>
<stop offset="0.94" stop-color="white" stop-opacity="0.04"/>
<stop offset="1" stop-color="white" stop-opacity="0"/>
</linearGradient>
<linearGradient id="paint29_linear_60_1277" x1="272.406" y1="248.112" x2="262.921" y2="345.746" gradientUnits="userSpaceOnUse">
<stop offset="0.3" stop-color="white"/>
<stop offset="0.36" stop-color="white" stop-opacity="0.88"/>
<stop offset="0.54" stop-color="white" stop-opacity="0.57"/>
<stop offset="0.7" stop-color="white" stop-opacity="0.33"/>
<stop offset="0.84" stop-color="white" stop-opacity="0.15"/>
<stop offset="0.94" stop-color="white" stop-opacity="0.04"/>
<stop offset="1" stop-color="white" stop-opacity="0"/>
</linearGradient>
<radialGradient id="paint30_radial_60_1277" cx="0" cy="0" r="1" gradientUnits="userSpaceOnUse" gradientTransform="translate(360.181 862.95) scale(190.783 34.4789)">
<stop offset="0.05" stop-color="#666666" stop-opacity="0.5"/>
<stop offset="0.16" stop-color="#939393" stop-opacity="0.5"/>
<stop offset="0.31" stop-color="#CECECE" stop-opacity="0.5"/>
<stop offset="0.45" stop-color="#F2F2F2" stop-opacity="0.5"/>
<stop offset="0.55" stop-color="white" stop-opacity="0.5"/>
<stop offset="0.65" stop-color="white" stop-opacity="0.39"/>
<stop offset="0.89" stop-color="white" stop-opacity="0.11"/>
<stop offset="1" stop-color="white" stop-opacity="0"/>
</radialGradient>
</defs>
</svg>
