<svg width="64" height="38" viewBox="0 0 64 38" fill="none" xmlns="http://www.w3.org/2000/svg">
<circle cx="19" cy="19" r="18.5" stroke="#F2C94C"/>
<path d="M32.7971 12.44V23H30.8051V16.24L30.9011 14.704L30.5411 16.448L28.4691 22.248H26.5011L24.4371 16.448L24.0851 14.704L24.1731 16.24V23H22.1731V12.44H24.9411L27.3571 19.968L27.4851 20.688L27.6131 19.968L30.0371 12.44H32.7971ZM36.3261 20.168C36.3421 20.4667 36.4221 20.7333 36.5661 20.968C36.7101 21.2027 36.9181 21.3867 37.1901 21.52C37.4675 21.6533 37.7981 21.72 38.1821 21.72C38.5288 21.72 38.8328 21.6773 39.0941 21.592C39.3608 21.5067 39.5848 21.4027 39.7661 21.28C39.9528 21.152 40.0915 21.0293 40.1821 20.912L41.0221 22.16C40.8728 22.3467 40.6728 22.52 40.4221 22.68C40.1768 22.8347 39.8621 22.9573 39.4781 23.048C39.0995 23.144 38.6248 23.192 38.0541 23.192C37.3341 23.192 36.7021 23.0507 36.1581 22.768C35.6141 22.4853 35.1901 22.0773 34.8861 21.544C34.5821 21.0107 34.4301 20.376 34.4301 19.64C34.4301 19 34.5661 18.424 34.8381 17.912C35.1101 17.3947 35.5048 16.9867 36.0221 16.688C36.5448 16.3893 37.1715 16.24 37.9021 16.24C38.5901 16.24 39.1848 16.3733 39.6861 16.64C40.1928 16.9013 40.5848 17.2853 40.8621 17.792C41.1395 18.2987 41.2781 18.9173 41.2781 19.648C41.2781 19.6907 41.2755 19.7787 41.2701 19.912C41.2701 20.04 41.2648 20.1253 41.2541 20.168H36.3261ZM39.3741 18.912C39.3688 18.7413 39.3155 18.5573 39.2141 18.36C39.1181 18.1627 38.9661 17.9947 38.7581 17.856C38.5501 17.7173 38.2728 17.648 37.9261 17.648C37.5795 17.648 37.2941 17.7147 37.0701 17.848C36.8515 17.9813 36.6861 18.1467 36.5741 18.344C36.4621 18.536 36.3981 18.7253 36.3821 18.912H39.3741ZM46.8343 16.24C47.2823 16.24 47.7196 16.3333 48.1463 16.52C48.5729 16.7013 48.9223 16.992 49.1943 17.392C49.4716 17.792 49.6103 18.3147 49.6103 18.96V23H47.5703V19.312C47.5703 18.7733 47.4423 18.3733 47.1863 18.112C46.9356 17.8507 46.6049 17.72 46.1943 17.72C45.9276 17.72 45.6716 17.7947 45.4263 17.944C45.1863 18.088 44.9889 18.2907 44.8343 18.552C44.6849 18.808 44.6103 19.1013 44.6103 19.432V23H42.5783V16.432H44.6103V17.48C44.6689 17.2987 44.8023 17.112 45.0103 16.92C45.2183 16.728 45.4823 16.568 45.8023 16.44C46.1223 16.3067 46.4663 16.24 46.8343 16.24ZM53.1091 19.576C53.1091 20.1627 53.2265 20.632 53.4611 20.984C53.6958 21.3307 54.0745 21.504 54.5971 21.504C55.1251 21.504 55.5065 21.3307 55.7411 20.984C55.9758 20.632 56.0931 20.1627 56.0931 19.576V16.432H58.0931V19.808C58.0931 20.4853 57.9571 21.08 57.6851 21.592C57.4131 22.0987 57.0158 22.4933 56.4931 22.776C55.9758 23.0533 55.3438 23.192 54.5971 23.192C53.8558 23.192 53.2238 23.0533 52.7011 22.776C52.1838 22.4933 51.7891 22.0987 51.5171 21.592C51.2451 21.08 51.1091 20.4853 51.1091 19.808V16.432H53.1091V19.576Z" fill="#2A524C"/>
</svg>
