<svg width="14" height="8" viewBox="0 0 14 8" fill="none" xmlns="http://www.w3.org/2000/svg">
<path d="M13.0669 1.91655L7.46693 7.53322C7.40026 7.59989 7.32804 7.647 7.25026 7.67455C7.17248 7.70255 7.08915 7.71655 7.00026 7.71655C6.91137 7.71655 6.82804 7.70255 6.75026 7.67455C6.67248 7.647 6.60026 7.59989 6.53359 7.53322L0.916927 1.91655C0.761371 1.761 0.683593 1.56655 0.683593 1.33322C0.683593 1.09989 0.766927 0.899886 0.933593 0.73322C1.10026 0.566553 1.2947 0.48322 1.51693 0.48322C1.73915 0.48322 1.93359 0.566553 2.10026 0.73322L7.00026 5.63322L11.9003 0.733219C12.0558 0.577663 12.2474 0.499886 12.4749 0.499886C12.7029 0.499886 12.9003 0.583219 13.0669 0.749885C13.2336 0.916552 13.3169 1.111 13.3169 1.33322C13.3169 1.55544 13.2336 1.74989 13.0669 1.91655Z" fill="#2A524C"/>
</svg>
