<svg width="52" height="51" viewBox="0 0 52 51" fill="none" xmlns="http://www.w3.org/2000/svg">
<path d="M11.5353 19.9237H12.5945V20.983V37.357L17.4049 32.5466V15.1133H0.58134L0.576172 49.3754L5.38661 44.5649V20.983V19.9237H6.451H11.5353Z" fill="#06171E"/>
<path d="M30.4872 38.8761H31.5516V39.9405V45.0196V46.084H30.4872H9.35438L4.54395 50.8944L36.3569 50.8893V34.0657H21.3727L16.5623 38.8761H30.4872Z" fill="#06171E"/>
<path d="M46.6652 19.1384V20.2028H45.606H35.2359L30.4307 25.0081H51.4705V3.96826L46.6652 8.77353V19.1384Z" fill="#06171E"/>
<path d="M45.1466 4.80528L49.9519 0H26.4629V23.4838L31.2733 18.6786V5.86967V4.80528H32.3326H45.1466Z" fill="#06171E"/>
</svg>
