<svg width="74" height="80" viewBox="0 0 74 80" fill="none" xmlns="http://www.w3.org/2000/svg">
<path d="M22.5353 19.9237H23.5945V20.983V37.357L28.4049 32.5466V15.1133H11.5813L11.5762 49.3754L16.3866 44.5649V20.983V19.9237H17.451H22.5353Z" fill="#06171E"/>
<path d="M41.4872 38.8761H42.5516V39.9405V45.0196V46.084H41.4872H20.3544L15.5439 50.8944L47.3569 50.8893V34.0657H32.3727L27.5623 38.8761H41.4872Z" fill="#06171E"/>
<path d="M57.6652 19.1384V20.2028H56.606H46.2359L41.4307 25.0081H62.4705V3.96826L57.6652 8.77353V19.1384Z" fill="#06171E"/>
<path d="M56.1466 4.80528L60.9519 0H37.4629V23.4838L42.2733 18.6786V5.86967V4.80528H43.3326H56.1466Z" fill="#06171E"/>
<path d="M0.384766 77.1582H1.27348V79.9742H1.76951V77.1582H2.65822V76.719H0.384766V77.1582Z" fill="#06171E"/>
<path d="M7.21519 79.2456H8.45009L8.70327 79.9742H9.22514L8.0419 76.719H7.62855L6.44531 79.9742H6.96718L7.21519 79.2456ZM7.83006 77.3855H7.84039L8.31058 78.8064H7.35987L7.83006 77.3855Z" fill="#06171E"/>
<path d="M14.1542 77.4217C14.2059 77.3545 14.2731 77.2976 14.3609 77.2563C14.4436 77.215 14.5418 77.1891 14.6606 77.1891C14.8208 77.1891 14.95 77.2356 15.0636 77.3235C15.167 77.4165 15.2445 77.525 15.2806 77.6593H15.8025C15.7508 77.3855 15.6268 77.1581 15.4253 76.9721C15.229 76.7913 14.9706 76.6983 14.6554 76.6931C14.3971 76.6931 14.1853 76.7551 14.0147 76.8739C13.8391 76.9928 13.7151 77.1271 13.6376 77.277C13.5911 77.3545 13.5497 77.4578 13.529 77.587C13.5084 77.7162 13.498 77.9693 13.498 78.3465C13.498 78.7237 13.5084 78.9717 13.529 79.1009C13.5394 79.1733 13.5549 79.2301 13.5756 79.2766C13.5962 79.3231 13.6169 79.3696 13.6427 79.4161C13.7202 79.5659 13.8494 79.7003 14.0199 79.8139C14.1904 79.9328 14.4023 79.9948 14.6606 80C14.9913 79.9948 15.2703 79.8811 15.4873 79.6641C15.7043 79.4419 15.818 79.1733 15.8232 78.8426V78.1812H14.6658V78.6462H15.3272V78.8167C15.3272 79.0182 15.26 79.1836 15.136 79.3076C15.012 79.4368 14.8518 79.5039 14.6606 79.5039C14.5469 79.5039 14.4436 79.4781 14.3609 79.4316C14.2783 79.3903 14.2059 79.3334 14.1542 79.2662C14.0922 79.1939 14.0457 79.1061 14.0251 78.9924C13.9992 78.8787 13.9889 78.6617 13.9889 78.3414C13.9889 78.021 13.9992 77.804 14.0251 77.6852C14.0457 77.5767 14.0871 77.4837 14.1542 77.4165V77.4217Z" fill="#06171E"/>
<path d="M21.6621 76.719V79.9742H23.7392V79.5091H22.153V76.719H21.6621Z" fill="#06171E"/>
<path d="M28.8082 76.719H28.3174V79.9742H28.8082V76.719Z" fill="#06171E"/>
<path d="M35.5509 79.0338L34.0783 76.719H33.6133V79.9742H34.1041V77.6594H34.1145L35.5871 79.9742H36.0521V76.719H35.5612V79.0338H35.5509Z" fill="#06171E"/>
<path d="M42.9345 77.184V76.719H40.8574V79.9742H42.9345V79.5091H41.3483V78.5533H42.702V78.1141H41.3483V77.184H42.9345Z" fill="#06171E"/>
<path d="M53.1907 79.9742V76.719H52.6947V78.1141H51.4081V76.719H50.9121V79.9742H51.4081V78.5533H52.6947V79.9742H53.1907Z" fill="#06171E"/>
<path d="M60.0683 77.184V76.719H57.9912V79.9742H60.0683V79.5091H58.4872V78.5533H59.8358V78.1141H58.4872V77.184H60.0683Z" fill="#06171E"/>
<path d="M66.279 78.5274C66.6923 78.3672 66.9042 78.0727 66.9093 77.6283C66.899 77.3287 66.7905 77.0961 66.589 76.936C66.4133 76.7965 66.1963 76.7241 65.9224 76.7241H64.6514V79.9793H65.1422V78.5842H65.7726L66.4443 79.9793H67.0333L66.279 78.5326V78.5274ZM65.1422 78.145V77.1581H65.9173C66.0774 77.1581 66.1963 77.1891 66.279 77.2563C66.3875 77.3287 66.4391 77.4527 66.4443 77.6232C66.4443 77.7627 66.3978 77.8815 66.31 77.9797C66.217 78.083 66.0774 78.1347 65.8966 78.1399H65.1474L65.1422 78.145Z" fill="#06171E"/>
<path d="M71.5547 79.9742H73.6318V79.5091H72.0456V78.5533H73.3993V78.1141H72.0456V77.184H73.6318V76.719H71.5547V79.9742Z" fill="#06171E"/>
<path d="M5.07636 70.6479C4.82318 71.1388 4.41499 71.3868 3.85179 71.3868C3.28859 71.3868 2.8494 71.2111 2.52905 70.8597C2.2087 70.5084 2.04853 70.0382 2.04853 69.4543C2.04853 68.8705 2.2087 68.4003 2.52905 68.0489C2.8494 67.6976 3.29376 67.5219 3.85179 67.5219C4.40982 67.5219 4.82318 67.7699 5.07636 68.2556H7.02947C6.80213 67.5529 6.39393 67.0052 5.81523 66.6125C5.23654 66.2198 4.57 66.0183 3.82596 66.0183C2.8649 66.0183 2.04853 66.3438 1.38199 66.9897C0.715451 67.6356 0.384766 68.4571 0.384766 69.4543C0.384766 70.4516 0.715451 71.2679 1.38199 71.919C2.04853 72.5648 2.8649 72.8904 3.82596 72.8904C4.57 72.8904 5.23654 72.694 5.81523 72.2962C6.39393 71.9035 6.80213 71.3506 7.02947 70.6531H5.07636V70.6479Z" fill="#06171E"/>
<path d="M18.3919 69.4543C18.3919 68.4623 18.0612 67.6407 17.3998 66.9897C16.7384 66.3438 15.9272 66.0183 14.961 66.0183C13.9948 66.0183 13.1784 66.3438 12.5119 66.9897C11.8453 67.6356 11.5146 68.4571 11.5146 69.4543C11.5146 70.4516 11.8453 71.2731 12.5119 71.919C13.1784 72.57 13.9948 72.8955 14.9558 72.8955C15.9169 72.8955 16.7333 72.57 17.3946 71.919C18.056 71.2679 18.3867 70.4464 18.3867 69.4543H18.3919ZM16.2476 70.8597C15.9272 71.2111 15.4932 71.3868 14.9558 71.3868C14.4185 71.3868 13.9845 71.2111 13.6641 70.8597C13.3437 70.5084 13.1836 70.0382 13.1836 69.4543C13.1836 68.8705 13.3437 68.4003 13.6641 68.0489C13.9845 67.6976 14.4185 67.5219 14.9558 67.5219C15.4932 67.5219 15.9272 67.6976 16.2476 68.0489C16.5679 68.4003 16.7281 68.8705 16.7281 69.4543C16.7281 70.0382 16.5679 70.5084 16.2476 70.8597Z" fill="#06171E"/>
<path d="M30.8694 66.1165H28.9938L27.0717 70.746L25.1393 66.1165H23.2637V72.8283H24.9016V69.041L26.462 72.8283H27.6763L29.2315 69.041V72.8283H30.8694V66.1165Z" fill="#06171E"/>
<path d="M37.7622 70.2188H38.775C39.24 70.2188 39.643 70.1516 39.984 70.0121C40.325 69.8726 40.5834 69.6969 40.7539 69.4799C41.0794 69.0614 41.2396 68.6222 41.2396 68.1675C41.2396 67.5992 41.0226 67.1135 40.5886 66.7156C40.1545 66.3126 39.55 66.1111 38.7698 66.1111H36.1191V72.823H37.7519V70.2136L37.7622 70.2188ZM37.7622 67.3615H38.775C39.0178 67.3615 39.209 67.439 39.3588 67.5888C39.5035 67.7438 39.581 67.9402 39.581 68.1779C39.581 68.4155 39.5087 68.6119 39.364 68.7566C39.2193 68.9012 39.023 68.9787 38.775 68.9787H37.7622V67.3615Z" fill="#06171E"/>
<path d="M49.7444 66.0957H47.7551L45.4248 72.8282H47.1661L47.5381 71.6967H49.9459L50.3231 72.8282H52.0695L49.7495 66.0957H49.7444ZM47.9463 70.4566L48.742 68.0695L49.5377 70.4566H47.9514H47.9463Z" fill="#06171E"/>
<path d="M62.7035 72.8282V66.0957H61.0656V70.3326L58.3323 66.0957H56.6943V72.8282H58.3323V68.5913L61.0656 72.8282H62.7035Z" fill="#06171E"/>
<path d="M70.5312 69.1443L69.2446 66.1165H67.3896L69.7096 70.6685V72.8283H71.3475V70.6685L73.6675 66.1165H71.8126L70.5312 69.1443Z" fill="#06171E"/>
</svg>
