<svg width="68" height="61" viewBox="0 0 68 61" fill="none" xmlns="http://www.w3.org/2000/svg">
<path d="M22.8858 47.0588L27.6674 49.8195L33.509 46.4473L28.7274 43.6866V3.20906L23.177 0L22.6878 0.279546L0.637695 13.011V19.7554L22.8858 6.90156V47.0588Z" fill="#06171E"/>
<path d="M39.8806 3.20906V45.6843L23.177 55.3349L6.47346 45.6843V19.3069L0.637695 22.6733V47.0588L23.177 60.0757L45.7163 47.0588V6.90156L67.9703 19.7554V13.011L45.4309 0L39.8806 3.20906Z" fill="#06171E"/>
<path d="M42.6707 51.7355L36.8291 55.1135L45.4313 60.0757L67.9706 47.0588V22.6732L62.129 19.3069V43.6866L45.4313 53.3372L42.6707 51.7355Z" fill="#06171E"/>
</svg>
