<svg width="72" height="80" viewBox="0 0 72 80" fill="none" xmlns="http://www.w3.org/2000/svg">
<path d="M32.3984 13.1359L38.7371 24.1165C39.4539 24.1019 40.1706 24.097 40.8972 24.097C42.75 24.097 44.5834 24.1409 46.3826 24.2189L32.3984 0L17.0342 26.613C19.7013 26.0035 22.5343 25.4964 25.494 25.0966L32.4032 13.1359H32.3984ZM21.0179 23.7508L32.3984 4.04218L42.8183 22.093C42.1747 22.0833 41.5359 22.0784 40.8923 22.0784C40.5607 22.0784 40.2292 22.0784 39.8927 22.0784L34.1439 12.1217L32.3935 9.08881L30.643 12.1217L24.2311 23.2291C23.1486 23.3851 22.0711 23.5558 21.0179 23.746V23.7508Z" fill="#06171E"/>
<path d="M22.9729 60.4425C15.0495 56.9611 10.2028 52.2996 10.2028 47.1799C10.2028 45.4733 10.7391 43.8203 11.7484 42.2454H56.7877L48.5815 28.0368C51.7021 27.7784 54.9349 27.6419 58.2457 27.6419C62.7072 27.6419 67.0224 27.8906 71.1182 28.3538C70.8842 28.2758 70.6404 28.2026 70.3966 28.1295C70.6355 28.2026 70.8793 28.2758 71.1182 28.3538C71.3913 28.383 71.6643 28.4171 71.9423 28.4513C71.2206 28.266 70.4843 28.0953 69.7383 27.9247C63.0485 26.4326 55.3493 25.5793 47.1577 25.5696C47.1089 25.5696 47.0602 25.5696 47.0114 25.5696C45.1488 25.5696 43.3106 25.6135 41.5016 25.7012C40.897 25.7305 40.3021 25.7646 39.7072 25.7988C33.9975 26.1547 28.6339 26.93 23.8067 28.0368C23.3874 28.1343 22.9778 28.2319 22.5682 28.3294C19.706 29.0315 17.0486 29.8556 14.635 30.782C5.73637 34.1952 0.197266 39.0078 0.197266 44.3372C0.197266 51.1782 9.32996 57.1658 22.9827 60.4474L22.9729 60.4425ZM41.4723 28.8609L45.4072 35.6726H19.4037C24.9087 32.6007 32.5688 30.2066 41.4723 28.8609Z" fill="#06171E"/>
<path d="M4.53689 73.8903C4.78557 73.7781 5.00012 73.6221 5.1854 73.4319C5.37069 73.2369 5.51696 73.0175 5.61936 72.7688C5.72663 72.5201 5.77539 72.2568 5.77539 71.9789V71.423H4.48814V71.8619C4.48814 72.0374 4.46376 72.1837 4.41013 72.3056C4.36137 72.4226 4.29797 72.5152 4.21996 72.5835C4.13707 72.6518 4.04442 72.7005 3.9469 72.7298C3.84938 72.759 3.76162 72.7737 3.67385 72.7737C3.38129 72.7737 3.1765 72.6859 3.06435 72.5104C2.95221 72.3348 2.89369 72.1154 2.89369 71.857V67.2687C2.89369 66.9664 2.94733 66.7177 3.04973 66.5178C3.157 66.3228 3.36666 66.2204 3.68848 66.2204C3.93228 66.2204 4.12732 66.313 4.26872 66.4983C4.41012 66.6836 4.48326 66.903 4.48326 67.1517V67.5808H5.77053V67.0785C5.77053 66.7665 5.71689 66.4788 5.61449 66.2155C5.50722 65.9522 5.36581 65.723 5.18052 65.528C4.8002 65.133 4.3126 64.9331 3.70311 64.9331C3.39104 64.9331 3.10824 64.9867 2.84981 65.0891C2.59138 65.1964 2.37197 65.3378 2.18669 65.5231C2.0014 65.7084 1.85999 65.9278 1.7576 66.1765C1.6552 66.43 1.60645 66.7031 1.60645 66.9956V71.9399C1.60645 72.3494 1.66983 72.6908 1.80148 72.9541C1.93313 73.2174 2.09891 73.4368 2.29882 73.6026C2.49874 73.7732 2.72792 73.8903 2.98147 73.9536C3.23502 74.0219 3.4837 74.056 3.72749 74.056C4.01518 74.056 4.27847 73.9975 4.52715 73.8854L4.53689 73.8903Z" fill="#06171E"/>
<path d="M16.1023 67.1273C16.1023 66.7665 16.039 66.4447 15.9122 66.1716C15.7854 65.8937 15.6245 65.6645 15.4197 65.4792C15.21 65.3037 14.976 65.1672 14.7225 65.0745C14.464 64.9819 14.2056 64.938 13.9472 64.938C13.6888 64.938 13.4303 64.9819 13.1719 65.0745C12.9135 65.1672 12.6843 65.3037 12.4844 65.4792C12.2747 65.6645 12.1041 65.8937 11.9822 66.1716C11.8554 66.4495 11.792 66.7665 11.792 67.1273V71.8667C11.792 72.2471 11.8554 72.5689 11.9822 72.837C12.1089 73.1052 12.2747 73.3295 12.4844 73.5051C12.6843 73.6903 12.9135 73.8269 13.1719 73.9195C13.4303 74.0122 13.6888 74.056 13.9472 74.056C14.2056 74.056 14.464 74.0073 14.7225 73.9195C14.9809 73.8269 15.21 73.6903 15.4197 73.5051C15.6196 73.3295 15.7854 73.1052 15.9122 72.837C16.039 72.5689 16.1023 72.2422 16.1023 71.8667V67.1273ZM14.8151 71.8667C14.8151 72.1788 14.7273 72.408 14.5567 72.5542C14.386 72.7005 14.1812 72.7737 13.9472 72.7737C13.7131 72.7737 13.5083 72.7005 13.3377 72.5542C13.167 72.408 13.0793 72.1788 13.0793 71.8667V67.1273C13.0793 66.8152 13.167 66.5861 13.3377 66.4398C13.5083 66.2935 13.7131 66.2204 13.9472 66.2204C14.1812 66.2204 14.386 66.2935 14.5567 66.4398C14.7273 66.5861 14.8151 66.8152 14.8151 67.1273V71.8667Z" fill="#06171E"/>
<path d="M25.1912 69.7604H25.1669L23.5139 65.0063H22.2803V73.983H23.5627V68.5268H23.5919L24.8499 72.3837H25.4935L26.7662 68.5268H26.7905V73.983H28.0778V65.0063H26.8295L25.1912 69.7604Z" fill="#06171E"/>
<path d="M37.9227 65.6402C37.7033 65.4062 37.4595 65.2404 37.1913 65.1478C36.9231 65.0551 36.6111 65.0112 36.26 65.0112H34.3291V73.9879H35.6164V70.4821H36.2697C36.7476 70.4821 37.1377 70.3992 37.4302 70.2383C37.7228 70.0725 37.9617 69.8433 38.1372 69.5508C38.2884 69.307 38.3859 69.0485 38.4347 68.7706C38.4786 68.4927 38.5029 68.1514 38.5029 67.7515C38.5029 67.2152 38.4591 66.7861 38.3762 66.474C38.2933 66.1571 38.1421 65.884 37.9227 65.65V65.6402ZM37.2742 68.3756C37.2596 68.5609 37.2206 68.717 37.1523 68.8437C37.084 68.9803 36.9816 69.0827 36.8354 69.1607C36.694 69.2387 36.4892 69.2728 36.2307 69.2728H35.6115V66.2205H36.2795C36.533 66.2205 36.7232 66.2595 36.8597 66.3326C36.9963 66.4106 37.0938 66.5179 37.162 66.6593C37.2303 66.8007 37.2693 66.9665 37.2742 67.1567C37.2839 67.3468 37.2888 67.5467 37.2888 67.7564C37.2888 67.9856 37.2839 68.1904 37.2693 68.3756H37.2742Z" fill="#06171E"/>
<path d="M45.4611 65.0063L43.457 73.983H44.7443L45.1246 72.0521H46.8751L47.2554 73.983H48.5427L46.5386 65.0063H45.4659H45.4611ZM45.3489 70.8429L45.9779 67.5906H46.0023L46.6313 70.8429H45.344H45.3489Z" fill="#06171E"/>
<path d="M58.6499 73.983V65.0063H57.3627V70.4187H57.3383L55.3977 65.0063H54.1592V73.983H55.4464V68.5902H55.4708L57.4407 73.983H58.6499Z" fill="#06171E"/>
<path d="M67.3346 73.983V70.1895L69.0997 65.0063H67.7393L66.7056 68.5756H66.6812L65.6475 65.0063H64.2822L66.0473 70.1895V73.983H67.3346Z" fill="#06171E"/>
<path d="M2.69375 79.9707V77.718H3.41052V77.3621H1.58691V77.718H2.2988V79.9707H2.69375Z" fill="#06171E"/>
<path d="M6.28774 77.3621L5.3418 79.9658H5.76112L5.96104 79.3807H6.95086L7.15078 79.9658H7.56524L6.6193 77.3621H6.28774ZM6.07319 79.0345L6.44864 77.8984H6.45838L6.83384 79.0345H6.07319Z" fill="#06171E"/>
<path d="M10.4124 77.9277C10.4562 77.874 10.5099 77.8301 10.5781 77.796C10.6464 77.7619 10.7244 77.7424 10.8171 77.7424C10.9438 77.7424 11.0511 77.7814 11.1389 77.8496C11.2218 77.9228 11.2803 78.0106 11.3144 78.1178H11.7337C11.6899 77.8984 11.5923 77.718 11.4314 77.5717C11.2754 77.4254 11.0657 77.3523 10.8171 77.3474C10.6123 77.3474 10.4416 77.3962 10.3051 77.4937C10.1637 77.5863 10.0662 77.6936 10.0028 77.8155C9.96377 77.8789 9.93452 77.9618 9.91501 78.0642C9.89551 78.1666 9.88574 78.3714 9.88574 78.6737C9.88574 78.976 9.89551 79.171 9.91501 79.2783C9.92476 79.3319 9.9345 79.3807 9.94913 79.4197C9.96376 79.4538 9.98327 79.4928 10.0028 79.5319C10.0662 79.6537 10.1686 79.7561 10.3051 79.8488C10.4416 79.9463 10.6123 79.9951 10.8171 79.9999C11.0804 79.9951 11.3047 79.9073 11.4802 79.7318C11.6557 79.5562 11.7435 79.3368 11.7484 79.0735V78.542H10.8219V78.9175H11.3534V79.054C11.3534 79.2198 11.2998 79.3466 11.2023 79.449C11.0999 79.5562 10.9731 79.605 10.8219 79.605C10.7293 79.605 10.6513 79.5855 10.583 79.5465C10.5148 79.5123 10.4611 79.4685 10.4172 79.4148C10.3685 79.3612 10.3343 79.2832 10.3148 79.1954C10.2953 79.1028 10.2856 78.9321 10.2856 78.6737C10.2856 78.4152 10.2953 78.2446 10.3148 78.1519C10.3295 78.0642 10.3636 77.9911 10.4172 77.9374L10.4124 77.9277Z" fill="#06171E"/>
<path d="M14.4014 77.3621V79.9707H16.069V79.5953H14.7963V77.3621H14.4014Z" fill="#06171E"/>
<path d="M19.0287 77.3621H18.6338V79.9658H19.0287V77.3621Z" fill="#06171E"/>
<path d="M21.7734 77.3621V79.9707H22.1684V78.1178H22.1782L23.3533 79.9707H23.7287V77.3621H23.3338V79.2149H23.324L22.144 77.3621H21.7734Z" fill="#06171E"/>
<path d="M28.1363 77.7375V77.3621H26.4736V79.9707H28.1363V79.5953H26.8686V78.8297H27.9511V78.4835H26.8686V77.7375H28.1363Z" fill="#06171E"/>
<path d="M33.8075 77.8106C33.7685 77.874 33.7392 77.9569 33.7197 78.0593C33.7002 78.1617 33.6953 78.3665 33.6953 78.6688C33.6953 78.9711 33.7051 79.1662 33.7197 79.2734C33.7294 79.3271 33.7392 79.3758 33.7538 79.4148C33.7684 79.449 33.788 79.488 33.8075 79.527C33.8709 79.6489 33.9732 79.7513 34.1098 79.8439C34.2463 79.9414 34.417 79.9902 34.6217 79.9951C34.885 79.9902 35.1093 79.9024 35.2849 79.7269C35.4604 79.5514 35.5482 79.3319 35.5531 79.0686V78.5372H34.6266V78.9126H35.1581V79.0491C35.1581 79.2149 35.1045 79.3417 35.0021 79.4441C34.8997 79.5514 34.7729 79.6001 34.6217 79.6001C34.5291 79.6001 34.4511 79.5806 34.3828 79.5416C34.3146 79.5075 34.2609 79.4636 34.217 79.41C34.1683 79.3563 34.1341 79.2783 34.1146 79.1905C34.0951 79.0979 34.0854 78.9272 34.0854 78.6688C34.0854 78.4104 34.0951 78.2397 34.1146 78.1471C34.1293 78.0593 34.1634 77.9862 34.217 77.9325C34.2609 77.8789 34.3146 77.835 34.3828 77.8009C34.4511 77.7668 34.5291 77.7472 34.6217 77.7472C34.7485 77.7472 34.8558 77.7863 34.9436 77.8545C35.0265 77.9277 35.085 78.0154 35.1191 78.1227H35.5384C35.4945 77.9033 35.397 77.7229 35.2361 77.5766C35.0752 77.4303 34.8704 77.3572 34.6217 77.3523C34.417 77.3523 34.2463 77.401 34.1098 77.4986C33.9684 77.5912 33.8709 77.6985 33.8075 77.8204V77.8106Z" fill="#06171E"/>
<path d="M38.2342 77.8109C38.1952 77.8742 38.1659 77.9571 38.1464 78.0595C38.1269 78.1619 38.1172 78.3667 38.1172 78.669C38.1172 78.9713 38.1269 79.1664 38.1464 79.2737C38.1562 79.3273 38.1659 79.3761 38.1806 79.4151C38.1952 79.4492 38.2147 79.4882 38.2342 79.5272C38.2976 79.6491 38.4 79.7515 38.5365 79.8441C38.673 79.9417 38.8437 79.9904 39.0485 79.9953C39.2582 79.9904 39.4288 79.9417 39.5654 79.8441C39.7019 79.7515 39.7994 79.6442 39.8628 79.5272C39.9067 79.4638 39.9359 79.3809 39.9554 79.2737C39.97 79.1713 39.9798 78.9665 39.9798 78.669C39.9798 78.3716 39.97 78.1619 39.9554 78.0595C39.9408 77.9571 39.9067 77.8742 39.8628 77.8109C39.8043 77.689 39.7019 77.5817 39.5654 77.489C39.4288 77.3915 39.2533 77.3428 39.0485 77.3428C38.8437 77.3428 38.673 77.3915 38.5365 77.489C38.3951 77.5817 38.2976 77.689 38.2342 77.8109ZM38.5463 78.1424C38.5609 78.0547 38.595 77.9815 38.6487 77.9279C38.6925 77.8742 38.7462 77.8304 38.8144 77.7962C38.8827 77.7621 38.9607 77.7426 39.0534 77.7426C39.146 77.7426 39.2289 77.7621 39.2972 77.7962C39.3606 77.8304 39.4142 77.8791 39.4532 77.9279C39.5068 77.9815 39.541 78.0547 39.5605 78.1424C39.58 78.2351 39.5897 78.4106 39.5897 78.6642C39.5897 78.9177 39.58 79.0932 39.5605 79.1859C39.541 79.2785 39.5068 79.3517 39.4532 79.4053C39.4142 79.4589 39.3606 79.5028 39.2972 79.537C39.2289 79.576 39.146 79.5955 39.0534 79.5955C38.9607 79.5955 38.8827 79.576 38.8144 79.537C38.7462 79.5028 38.6925 79.4589 38.6487 79.4053C38.595 79.3517 38.5658 79.2737 38.5463 79.1859C38.5268 79.0932 38.517 78.9226 38.517 78.6642C38.517 78.4057 38.5268 78.2351 38.5463 78.1424Z" fill="#06171E"/>
<path d="M42.6377 79.9707H44.3004V79.5953H43.0326V78.8297H44.1151V78.4835H43.0326V77.7375H44.3004V77.3621H42.6377V79.9707Z" fill="#06171E"/>
<path d="M47.6402 79.5955C47.3525 79.5955 47.1087 79.5077 46.8991 79.337L46.6406 79.6345C46.9186 79.8734 47.2501 79.9904 47.6353 79.9904C48.2302 79.9855 48.5374 79.732 48.552 79.2346C48.552 79.0493 48.4935 78.8884 48.3765 78.747C48.2594 78.6056 48.079 78.5179 47.8352 78.4837C47.7133 78.4691 47.6158 78.4545 47.5427 78.4447C47.4159 78.4204 47.3184 78.3765 47.2599 78.318C47.2014 78.2595 47.1721 78.1912 47.1721 78.1132C47.1721 77.9864 47.216 77.8938 47.3038 77.8304C47.3867 77.7719 47.4842 77.7377 47.6061 77.7377C47.8401 77.7377 48.0547 77.8109 48.2497 77.9376L48.4691 77.6109C48.2302 77.4403 47.9474 77.3476 47.6256 77.3428C47.3574 77.3428 47.1477 77.4159 47.0015 77.5524C46.8503 77.6938 46.7723 77.8743 46.7723 78.1034C46.7723 78.2936 46.8308 78.4545 46.9527 78.5861C47.0697 78.7129 47.2404 78.7958 47.4647 78.8348C47.5914 78.8543 47.7036 78.8689 47.8109 78.8836C48.04 78.9226 48.1522 79.0396 48.1522 79.2346C48.1522 79.4736 47.9766 79.5906 47.6353 79.5955H47.6402Z" fill="#06171E"/>
<path d="M56.0609 79.9707V77.3621H55.666V78.4835H54.6323V77.3621H54.2373V79.9707H54.6323V78.8297H55.666V79.9707H56.0609Z" fill="#06171E"/>
<path d="M60.4693 77.7375V77.3621H58.8066V79.9707H60.4693V79.5953H59.2016V78.8297H60.2841V78.4835H59.2016V77.7375H60.4693Z" fill="#06171E"/>
<path d="M64.341 78.8151C64.6725 78.6883 64.8383 78.4494 64.8432 78.0935C64.8383 77.8545 64.7505 77.6693 64.5847 77.5376C64.4482 77.4255 64.2727 77.3669 64.0533 77.3669H63.0342V79.9707H63.4291V78.859H63.9314L64.4677 79.9707H64.9358L64.3312 78.8151H64.341ZM63.434 78.5079V77.718H64.0533C64.18 77.718 64.2776 77.7424 64.341 77.796C64.4238 77.8545 64.4677 77.9569 64.4726 78.0886C64.4726 78.2007 64.4385 78.2983 64.3653 78.3763C64.2922 78.4592 64.18 78.503 64.0338 78.503H63.4389L63.434 78.5079Z" fill="#06171E"/>
<path d="M69.1285 77.7375V77.3621H67.4658V79.9707H69.1285V79.5953H67.8608V78.8297H68.9432V78.4835H67.8608V77.7375H69.1285Z" fill="#06171E"/>
</svg>
