<svg width="161" height="100" viewBox="0 0 161 100" fill="none" xmlns="http://www.w3.org/2000/svg">
<path d="M44.3622 84.8246C45.3248 84.8246 46.2032 84.4407 46.8555 83.82L45.835 82.7995C45.451 83.1519 44.9303 83.3728 44.3674 83.3728C43.1628 83.3728 42.1897 82.4102 42.1897 81.2057C42.1897 80.0011 43.1628 79.0385 44.3674 79.0385C44.9303 79.0385 45.4563 79.2594 45.835 79.6223L46.8555 78.5914C46.2085 77.9707 45.33 77.5867 44.3622 77.5867C42.3686 77.5867 40.7432 79.2068 40.7432 81.2057C40.7432 83.2045 42.3633 84.8246 44.3622 84.8246Z" fill="#06171E"/>
<path d="M60.0056 81.2108C60.0056 79.2172 58.3854 77.5918 56.3866 77.5918C54.3877 77.5918 52.7676 79.2119 52.7676 81.2108C52.7676 83.2096 54.3877 84.8298 56.3866 84.8298C58.3854 84.8298 60.0056 83.2096 60.0056 81.2108ZM56.3866 83.3885C55.182 83.3885 54.2089 82.4154 54.2089 81.2108C54.2089 80.0062 55.182 79.0436 56.3866 79.0436C57.5911 79.0436 58.5537 80.0167 58.5537 81.2108C58.5537 82.4048 57.5806 83.3885 56.3866 83.3885Z" fill="#06171E"/>
<path d="M73.7403 84.8245V77.5918H72.1885L70.0792 82.8783L67.9593 77.5918H66.4023V84.8245H67.8436V81.2108L69.2954 84.8245H70.8524L72.299 81.2108V84.8245H73.7403Z" fill="#06171E"/>
<path d="M81.577 81.9367H82.1714C83.3655 81.9367 84.3281 80.9636 84.3281 79.7695C84.3281 78.5754 83.3655 77.5918 82.1609 77.5918H80.1357V84.8245H81.577V81.9314V81.9367ZM81.577 79.0436H82.1609C82.5607 79.0436 82.8868 79.3697 82.8868 79.7695C82.8868 80.1693 82.5607 80.4849 82.1609 80.4849H81.577V79.0436Z" fill="#06171E"/>
<path d="M93.9178 77.5918H92.3819L89.7676 84.8245H91.3036L92.04 82.7994H94.265L95.0014 84.8245H96.5374L93.9231 77.5918H93.9178ZM92.5607 81.3528L93.1446 79.7222L93.739 81.3528H92.566H92.5607Z" fill="#06171E"/>
<path d="M108.762 84.8245V77.5918H107.321V82.4206L104.428 77.5918H102.739V84.8245H104.181V80.0062L107.079 84.8245H108.762Z" fill="#06171E"/>
<path d="M116.579 77.5918H114.964L116.852 81.3791V84.8245H118.294V81.3791L120.187 77.5918H118.572L117.578 79.5959L116.579 77.5918Z" fill="#06171E"/>
<path d="M41.574 90.9894H42.0422V88.3383H42.8786V87.928H40.7324V88.3383H41.574V90.9894Z" fill="#06171E"/>
<path d="M46.2665 87.928L45.1514 90.9946H45.6458L45.8825 90.3108H47.045L47.2817 90.9946H47.7709L46.6558 87.928H46.2665ZM46.014 89.8953L46.4559 88.5539H46.4664L46.9083 89.8953H46.014Z" fill="#06171E"/>
<path d="M51.1158 88.5907C51.1632 88.5276 51.2315 88.475 51.3104 88.4329C51.3893 88.3908 51.484 88.3698 51.5945 88.3698C51.7418 88.3698 51.868 88.4171 51.9732 88.496C52.0732 88.5854 52.1415 88.6854 52.1784 88.8116H52.6728C52.6255 88.5539 52.5045 88.3382 52.3204 88.1646C52.1363 87.991 51.8943 87.9069 51.5945 87.9016C51.3525 87.9016 51.1526 87.9595 50.9896 88.0752C50.8265 88.1857 50.7055 88.3119 50.6319 88.4539C50.5845 88.5276 50.553 88.6275 50.5267 88.7485C50.5056 88.8695 50.4951 89.1062 50.4951 89.4639C50.4951 89.8216 50.5056 90.053 50.5267 90.174C50.5372 90.2424 50.553 90.295 50.5688 90.3371C50.5845 90.3791 50.6056 90.4212 50.6319 90.4686C50.7055 90.6106 50.8265 90.7368 50.9896 90.842C51.1526 90.9525 51.3525 91.0156 51.5945 91.0209C51.9048 91.0156 52.1678 90.9104 52.373 90.7053C52.5781 90.5001 52.6833 90.2424 52.6886 89.932V89.3061H51.5998V89.7479H52.2257V89.9057C52.2257 90.1004 52.1626 90.2529 52.0469 90.3686C51.9311 90.4896 51.7786 90.5527 51.5998 90.5527C51.4893 90.5527 51.3946 90.5317 51.3157 90.4843C51.2368 90.4475 51.1737 90.3949 51.1211 90.3318C51.0632 90.2634 51.0211 90.1793 51.0001 90.0741C50.9791 89.9689 50.9685 89.7637 50.9685 89.4639C50.9685 89.164 50.9791 88.9589 51.0001 88.8484C51.0211 88.7432 51.058 88.6591 51.1211 88.596L51.1158 88.5907Z" fill="#06171E"/>
<path d="M55.8135 87.928V90.9894H57.7703V90.5528H56.2764V87.928H55.8135Z" fill="#06171E"/>
<path d="M61.252 87.928H60.7891V90.9946H61.252V87.928Z" fill="#06171E"/>
<path d="M66.3178 90.1057H66.3126L64.9239 87.928H64.4873V90.9894H64.9502V88.8117H64.9607L66.3441 90.9894H66.786V87.928H66.3178V90.1057Z" fill="#06171E"/>
<path d="M71.9724 88.3646V87.928H70.0156V90.9894H71.9724V90.5528H70.4785V89.6533H71.7515V89.2378H70.4785V88.3646H71.9724Z" fill="#06171E"/>
<path d="M78.9945 88.0753C78.8314 88.1858 78.7104 88.312 78.6368 88.454C78.5894 88.5277 78.5579 88.6276 78.5316 88.7486C78.5105 88.8696 78.5 89.1063 78.5 89.464C78.5 89.8217 78.5105 90.0531 78.5316 90.1741C78.5421 90.2425 78.5579 90.2951 78.5736 90.3372C78.5894 90.3793 78.6105 90.4213 78.6368 90.4687C78.7104 90.6107 78.8314 90.7369 78.9945 90.8421C79.1575 90.9526 79.3574 91.0157 79.5994 91.021C79.9097 91.0157 80.1727 90.9105 80.3779 90.7054C80.583 90.5002 80.6882 90.2425 80.6935 89.9321V89.3062H79.6046V89.748H80.2306V89.9058C80.2306 90.1005 80.1675 90.253 80.0518 90.3687C79.936 90.4897 79.7835 90.5528 79.6046 90.5528C79.4942 90.5528 79.3995 90.5318 79.3206 90.4845C79.2417 90.4476 79.1786 90.395 79.126 90.3319C79.0681 90.2635 79.026 90.1794 79.005 90.0742C78.9839 89.969 78.9734 89.7638 78.9734 89.464C78.9734 89.1642 78.9839 88.959 79.005 88.8486C79.026 88.7434 79.0628 88.6592 79.126 88.5961C79.1733 88.5329 79.2417 88.4803 79.3206 88.4383C79.3995 88.3962 79.4942 88.3751 79.6046 88.3751C79.7519 88.3751 79.8782 88.4225 79.9834 88.5014C80.0833 88.5908 80.1517 88.6908 80.1885 88.817H80.683C80.6356 88.5592 80.5146 88.3436 80.3305 88.17C80.1464 87.9964 79.9045 87.9122 79.6046 87.907C79.3627 87.907 79.1628 87.9648 78.9997 88.0806L78.9945 88.0753Z" fill="#06171E"/>
<path d="M85.7696 90.4634C85.8222 90.3898 85.859 90.2899 85.8748 90.1689C85.8906 90.0479 85.9011 89.8112 85.9011 89.4588C85.9011 89.1063 85.8906 88.8644 85.8748 88.7434C85.8538 88.6224 85.817 88.5277 85.7696 88.4488C85.696 88.3068 85.5802 88.1805 85.4224 88.0701C85.2594 87.9596 85.0542 87.9017 84.8123 87.8965C84.5703 87.8965 84.3704 87.9543 84.2073 88.0701C84.0443 88.1805 83.9233 88.3068 83.8497 88.4488C83.8023 88.5224 83.7708 88.6224 83.7445 88.7434C83.7234 88.8644 83.7129 89.1011 83.7129 89.4588C83.7129 89.8164 83.7234 90.0479 83.7445 90.1689C83.755 90.2372 83.7708 90.2898 83.7865 90.3319C83.8023 90.374 83.8234 90.4161 83.8497 90.4634C83.9233 90.6055 84.0443 90.7317 84.2073 90.8369C84.3704 90.9474 84.5703 91.0105 84.8123 91.0158C85.0542 91.0105 85.2594 90.9526 85.4224 90.8369C85.5855 90.7317 85.7012 90.6055 85.7696 90.4634ZM85.2857 90.3267C85.2383 90.3898 85.1752 90.4424 85.1016 90.4792C85.0227 90.5266 84.9227 90.5476 84.8123 90.5476C84.7018 90.5476 84.6071 90.5266 84.5282 90.4792C84.4493 90.4424 84.3862 90.3898 84.3336 90.3267C84.2757 90.2583 84.2336 90.1741 84.2126 90.0689C84.1916 89.9637 84.181 89.7586 84.181 89.4588C84.181 89.1589 84.1916 88.9538 84.2126 88.8433C84.2336 88.7381 84.2705 88.6539 84.3336 88.5908C84.3809 88.5277 84.4493 88.4751 84.5282 88.433C84.6071 88.3909 84.7018 88.3699 84.8123 88.3699C84.9227 88.3699 85.0174 88.3962 85.1016 88.433C85.1805 88.4751 85.2383 88.5277 85.2857 88.5908C85.3435 88.6592 85.3856 88.7434 85.4119 88.8433C85.433 88.9538 85.4435 89.1589 85.4435 89.4588C85.4435 89.7586 85.433 89.9637 85.4119 90.0689C85.3909 90.1741 85.3488 90.2636 85.2857 90.3267Z" fill="#06171E"/>
<path d="M90.988 88.3646V87.928H89.0312V90.9894H90.988V90.5528H89.4941V89.6533H90.7671V89.2378H89.4941V88.3646H90.988Z" fill="#06171E"/>
<path d="M94.9172 90.5527C94.5805 90.5527 94.2912 90.4475 94.0492 90.2476L93.7441 90.5948C94.0703 90.8736 94.4595 91.0156 94.9172 91.0156C95.622 91.0051 95.9797 90.7105 95.9955 90.1267C95.9955 89.911 95.9271 89.7164 95.7903 89.5533C95.6536 89.385 95.4432 89.285 95.1539 89.243C95.0066 89.2272 94.8908 89.2061 94.8067 89.1956C94.6541 89.1693 94.5437 89.1167 94.4753 89.0431C94.4069 88.9694 94.3701 88.8905 94.3701 88.8011C94.3701 88.6538 94.4227 88.5434 94.5226 88.4697C94.6173 88.3961 94.7383 88.3645 94.8803 88.3645C95.1539 88.3698 95.4116 88.4487 95.6378 88.6012L95.8955 88.2172C95.6115 88.0121 95.2801 87.9069 94.9014 87.9016C94.5858 87.9016 94.3385 87.9858 94.1649 88.1488C93.9861 88.3119 93.8967 88.5276 93.8967 88.7958C93.8967 89.0168 93.9651 89.2061 94.1071 89.3639C94.2438 89.5165 94.4437 89.6112 94.7067 89.6585C94.854 89.6795 94.9908 89.7006 95.1118 89.7164C95.38 89.7637 95.5116 89.9005 95.5116 90.1267C95.5063 90.4054 95.3064 90.5475 94.9066 90.5527H94.9172Z" fill="#06171E"/>
<path d="M104.822 90.9894V87.928H104.354V89.2378H103.144V87.928H102.676V90.9894H103.144V89.6533H104.354V90.9894H104.822Z" fill="#06171E"/>
<path d="M110.009 88.3646V87.928H108.052V90.9894H110.009V90.5528H108.515V89.6533H109.788V89.2378H108.515V88.3646H110.009Z" fill="#06171E"/>
<path d="M113.496 89.6797H114.09L114.722 90.9895H115.274L114.564 89.6271C114.953 89.4746 115.153 89.1958 115.158 88.775C115.148 88.491 115.048 88.2753 114.853 88.1227C114.69 87.986 114.485 87.9229 114.227 87.9229H113.033V90.9895H113.496V89.6797ZM113.496 88.3384H114.222C114.369 88.3384 114.485 88.37 114.564 88.4331C114.664 88.5067 114.716 88.6225 114.716 88.7803C114.716 88.9118 114.674 89.0275 114.59 89.1169C114.501 89.2169 114.375 89.2642 114.201 89.2695H113.496V88.3384Z" fill="#06171E"/>
<path d="M120.198 88.3646V87.928H118.241V90.9894H120.198V90.5528H118.704V89.6533H119.977V89.2378H118.704V88.3646H120.198Z" fill="#06171E"/>
<path d="M50.8324 33.3382V33.3645L50.8219 33.4013C50.8114 33.4539 50.8061 33.5065 50.8009 33.5538V33.5643C50.8009 33.5643 50.8009 33.5854 50.8009 33.5959C50.8009 33.6275 50.7904 33.659 50.7904 33.6906L50.7798 33.7695V33.7853L50.7746 33.8116V33.8274V33.8379V33.8431V33.8694V33.8905V33.9063C50.7641 34.0062 50.7483 34.1061 50.7377 34.2061C50.7272 34.2955 50.7167 34.3849 50.7062 34.4744C50.7062 34.5112 50.7009 34.5427 50.6957 34.5743V34.5796C50.6851 34.69 50.6694 34.8005 50.6588 34.9057C50.6483 34.9846 50.6431 35.0688 50.6378 35.1529V35.1634L50.6273 35.2423C50.6273 35.2739 50.622 35.3055 50.6168 35.337C50.6168 35.3686 50.6115 35.4054 50.6062 35.437C50.6062 35.4527 50.6062 35.4738 50.6062 35.4896C50.6062 35.5159 50.6062 35.5422 50.601 35.5685C50.601 35.6 50.601 35.6316 50.5957 35.6684C50.5957 35.6842 50.5957 35.7 50.5957 35.7158C50.5852 35.8262 50.5799 35.9419 50.5694 36.0787C50.5694 36.1418 50.5642 36.1997 50.5589 36.2523C50.5589 36.3101 50.5536 36.3733 50.5484 36.4311V36.4417V36.4522C50.5484 36.4522 50.5484 36.468 50.5484 36.4785C50.5484 36.4943 50.5484 36.5048 50.5484 36.5206V36.5363V36.5574C50.5484 36.6258 50.5431 36.6889 50.5379 36.7573C50.5379 36.7836 50.5379 36.8151 50.5379 36.8414C50.5379 36.9624 50.5273 37.0781 50.5273 37.1939C50.5273 37.2096 50.5273 37.2307 50.5273 37.2517V37.2938C50.5273 37.3885 50.5273 37.4884 50.5273 37.5831V37.6357V37.662V37.7619C50.5273 37.7935 50.5273 37.8198 50.5273 37.8514C50.5273 37.8724 50.5273 37.8935 50.5273 37.9145C50.5273 37.9355 50.5273 37.9566 50.5273 37.9776C50.5273 38.0039 50.5273 38.0355 50.5273 38.0618V38.2354C50.6115 43.9374 52.8997 49.2869 56.9605 53.2899C61.0266 57.3034 66.413 59.5127 72.1255 59.5127C73.0355 59.5127 73.935 59.4548 74.824 59.3444C75.229 59.2918 75.6288 59.2392 76.0286 59.1655C73.0724 57.3771 70.5159 54.9837 68.5065 52.1064C67.7754 51.0649 67.1336 49.9708 66.5813 48.8451C66.4551 48.5926 66.3394 48.3349 66.2236 48.0771C66.2131 48.0508 66.1973 48.0193 66.1868 47.993C64.7876 44.8421 64.0565 41.4283 64.0565 37.9145C64.0565 32.8069 65.5977 27.8992 68.5118 23.7226C69.1798 22.7653 69.911 21.8605 70.7 21.0136C73.2565 18.2573 76.3915 16.1217 79.9263 14.754C80.9994 14.3385 82.0883 14.0018 83.2034 13.7388C85.055 13.3022 86.9592 13.0866 88.8896 13.0866C93.4029 13.0866 97.7372 14.2859 101.525 16.532C101.525 16.532 101.525 16.532 101.519 16.5267C101.488 16.4951 101.446 16.4583 101.414 16.4215C101.367 16.3742 101.319 16.3321 101.272 16.2847C101.256 16.269 101.24 16.2584 101.23 16.2427L101.219 16.2321L101.214 16.2216C101.172 16.1848 101.125 16.1427 101.083 16.1006C101.035 16.0586 100.993 16.0165 100.946 15.9691V15.9586L100.935 15.9481C100.935 15.9481 100.92 15.9323 100.909 15.9271C100.856 15.8797 100.804 15.8271 100.751 15.7798L100.741 15.7692L100.672 15.7061C100.672 15.7061 100.651 15.6851 100.636 15.6746C100.557 15.6062 100.483 15.5378 100.409 15.4694C100.32 15.3905 100.236 15.3169 100.157 15.2485C100.131 15.2274 100.104 15.2011 100.073 15.1801C100.015 15.1328 99.957 15.0802 99.8992 15.0328L99.7834 14.9381L99.7203 14.8855L99.673 14.8435L99.6467 14.8224C99.5783 14.7646 99.5099 14.712 99.4415 14.6541L99.431 14.6436L99.4257 14.6331H99.4152C99.3626 14.5857 99.3153 14.5436 99.2627 14.5068C99.0996 14.3753 98.9313 14.2438 98.763 14.1176V14.1123C98.7156 14.0755 98.6735 14.0439 98.6262 14.0071L98.5683 13.965L98.5368 13.9387C98.5368 13.9387 98.521 13.9282 98.5157 13.9229C98.5157 13.9229 98.5157 13.9229 98.5105 13.9177L98.5052 13.9124L98.4947 13.9019L98.4 13.8335L98.3632 13.8072L98.2317 13.7125C98.2317 13.7125 98.2054 13.6915 98.1896 13.681C98.1633 13.6652 98.1423 13.6441 98.116 13.6284L98.0634 13.5915C98.0107 13.5547 97.9634 13.5179 97.9108 13.4811C97.9003 13.4706 97.8845 13.4653 97.874 13.4548L97.8582 13.4443L97.8477 13.4337C97.7214 13.3443 97.6005 13.2602 97.4742 13.1707C97.4164 13.1286 97.3638 13.0918 97.3059 13.0497C97.2901 13.0392 97.2796 13.0287 97.2638 13.0234C97.1796 12.9708 97.0955 12.913 97.0113 12.8551C97.0113 12.8551 97.0008 12.8499 96.9955 12.8446H96.9903H96.9798C96.9798 12.8446 96.9429 12.8183 96.9272 12.8025C96.864 12.7604 96.8062 12.7236 96.7431 12.6868H96.7325V12.6815H96.722C96.6326 12.6132 96.5379 12.5606 96.4485 12.5027H96.438V12.4974L96.4274 12.4869C96.3328 12.429 96.2381 12.3659 96.1434 12.3133L95.9909 12.2239C95.9909 12.2239 95.9435 12.1923 95.9225 12.1818C95.8962 12.166 95.8646 12.145 95.8331 12.1292H95.8278C95.812 12.1187 95.791 12.1082 95.7752 12.0977C95.7068 12.0556 95.6384 12.0188 95.57 11.9767L95.5174 11.9451C95.5174 11.9451 95.4701 11.9188 95.4491 11.903C95.3859 11.8662 95.3228 11.8294 95.2597 11.7926C95.2544 11.7926 95.2492 11.7873 95.2387 11.782C94.8126 11.5453 94.3812 11.3139 93.9447 11.0982C93.9341 11.0982 93.9236 11.0877 93.9131 11.0824H93.9026C93.8079 11.0298 93.7132 10.9825 93.6133 10.9352L93.3555 10.8142C93.3555 10.8142 93.3397 10.8037 93.3345 10.8037C93.3345 10.8037 93.324 10.8037 93.3187 10.7984H93.3134C93.0083 10.6511 92.7296 10.5301 92.4613 10.4144H92.456L92.4508 10.4091H92.4455H92.4402C92.3771 10.3776 92.3087 10.3513 92.2456 10.325L92.2193 10.3145L92.1983 10.3039L92.0826 10.2566C92.0405 10.2408 91.9984 10.225 91.9563 10.204C91.9353 10.1935 91.9195 10.1882 91.8985 10.183C91.6091 10.0672 91.3724 9.97255 91.1568 9.89365L91.0253 9.84631H91.0095L90.8727 9.78845C90.5045 9.65695 90.1258 9.52544 89.7418 9.40446C89.7365 9.40446 89.7313 9.40446 89.7207 9.3992C89.6471 9.37816 89.5735 9.35186 89.5051 9.33082C89.4314 9.30978 89.3578 9.28348 89.2789 9.26244C89.2368 9.24666 89.1895 9.23614 89.1474 9.22036C88.9791 9.17301 88.8213 9.12567 88.674 9.08359H88.6687H88.6635C88.6424 9.07833 88.6214 9.07307 88.6003 9.06781C88.5688 9.05729 88.532 9.05203 88.5004 9.04151H88.4794L88.4478 9.02573C88.1322 8.94157 87.8113 8.86793 87.4904 8.78902C87.3011 8.74694 87.1117 8.70486 86.9224 8.66278C86.6015 8.5944 86.2806 8.52602 85.9545 8.46815C85.8335 8.44711 85.7125 8.42607 85.5915 8.40503H85.5863C85.4653 8.38399 85.3443 8.36295 85.2233 8.34717C85.1655 8.33665 85.1129 8.33139 85.055 8.32087C84.9866 8.31035 84.913 8.29983 84.8446 8.28931C84.4974 8.24197 84.1502 8.19988 83.8031 8.16306C83.1298 8.09468 82.4565 8.04734 81.7779 8.02104C81.3992 8.00526 81.0257 8 80.647 8C80.0105 8 79.3793 8.02104 78.7428 8.06312C78.6744 8.06312 78.6113 8.06838 78.5429 8.07364C77.8433 8.12098 77.1437 8.19463 76.4546 8.28931C76.3284 8.30509 76.2074 8.32613 76.0812 8.34191C76.0812 8.34191 76.0759 8.34191 76.0707 8.34191L51.0218 33.3908V33.4013L50.8324 33.3382Z" fill="#06171E"/>
<path d="M110.103 42.4489V42.4278L110.108 42.4015C110.113 42.3594 110.119 42.3173 110.124 42.2753V42.2647V42.249V42.2332C110.134 42.1806 110.145 42.1227 110.15 42.0649V42.028L110.161 41.9912C110.161 41.9754 110.161 41.9544 110.171 41.9386L110.192 41.7493L110.208 41.623C110.224 41.4968 110.24 41.381 110.25 41.2653V41.2495C110.266 41.1391 110.277 41.0339 110.287 40.9287C110.298 40.8392 110.303 40.7551 110.313 40.6762L110.324 40.592C110.329 40.5342 110.334 40.4763 110.34 40.4184V40.3974V40.3764C110.35 40.3027 110.35 40.2238 110.355 40.1502V40.1186C110.366 40.0081 110.376 39.8924 110.382 39.7609V39.7504C110.392 39.6347 110.397 39.5189 110.403 39.4032V39.3717V39.3243V39.277C110.413 39.1823 110.413 39.0876 110.419 38.9877C110.419 38.8562 110.429 38.7352 110.429 38.6089V38.5932V38.5353C110.429 38.4459 110.429 38.3564 110.429 38.267V38.1513C110.429 38.0724 110.429 37.9988 110.429 37.9199C110.429 37.841 110.429 37.7568 110.429 37.6779V37.5937C110.345 31.8917 108.062 26.5474 104.001 22.5392C99.9351 18.5257 94.5486 16.3164 88.8309 16.3164C87.5106 16.3164 86.206 16.4321 84.9278 16.6688C87.884 18.4573 90.4457 20.8507 92.4498 23.728C95.364 27.9045 96.9052 32.8122 96.9052 37.9199C96.9052 43.0275 95.364 47.9352 92.4498 52.1118C89.6041 56.1884 85.659 59.2919 81.0353 61.0803C78.1843 62.1849 75.1702 62.7478 72.0773 62.7478C67.5641 62.7478 63.2297 61.5485 59.4424 59.3076H59.4476L59.4634 59.3287L59.4792 59.3445C59.4792 59.3445 59.516 59.3813 59.5318 59.3971L59.5897 59.4549C59.637 59.5023 59.6843 59.5496 59.737 59.597L59.7475 59.6075L59.758 59.618C59.8369 59.6969 59.9316 59.7863 60.0263 59.8705L60.042 59.881L60.0526 59.8915C60.1157 59.9494 60.1735 60.0072 60.2367 60.0651L60.2419 60.0756C60.3524 60.1756 60.4576 60.2755 60.5733 60.3702H60.5786L60.5838 60.3807C60.6575 60.4438 60.7311 60.5122 60.8048 60.5753L60.8205 60.5859L60.8679 60.6279L61.0836 60.812L61.1256 60.8489L61.1362 60.8594C61.194 60.9067 61.2519 60.9541 61.3097 61.0014L61.3308 61.0172L61.3518 61.0382C61.4044 61.0803 61.457 61.1277 61.5201 61.175L61.5412 61.1908L61.5622 61.2066C61.6096 61.2434 61.6516 61.2802 61.6937 61.317L61.7095 61.3275L61.72 61.3381C61.8778 61.4696 62.0462 61.5958 62.2145 61.722C62.2513 61.7536 62.2881 61.7799 62.3249 61.8062C62.367 61.8378 62.4091 61.8693 62.4512 61.9009C62.4775 61.9167 62.4985 61.9325 62.5196 61.9535L62.5617 61.9851C62.63 62.0377 62.6932 62.085 62.7615 62.1376L62.8247 62.1849C62.8562 62.2112 62.893 62.2323 62.9246 62.2586L62.9351 62.2691L62.9509 62.2796C62.9982 62.3164 63.0508 62.3533 63.1034 62.3901L63.1561 62.4269C63.277 62.5163 63.4033 62.6005 63.5295 62.6899H63.54L63.5506 62.7057C63.6032 62.7425 63.661 62.7793 63.7189 62.8162L63.761 62.8425L63.8977 62.9319L64.045 63.0318C64.1187 63.0792 64.1976 63.1318 64.2765 63.1791C64.3554 63.2317 64.4343 63.2791 64.5079 63.3264H64.6973L65.0392 63.6525C65.0918 63.6841 65.1444 63.7157 65.197 63.7472C65.3022 63.8103 65.4074 63.8682 65.5126 63.9261H65.5231L65.5336 63.9366C65.6178 63.9839 65.6967 64.0313 65.7809 64.0786C66.2227 64.3311 66.6698 64.5678 67.1222 64.7887C67.2221 64.8361 67.3221 64.8887 67.4168 64.936C67.4326 64.9465 67.4483 64.9518 67.4589 64.9571C67.5535 64.9991 67.643 65.0465 67.7376 65.0886C68.0217 65.2201 68.311 65.3516 68.5898 65.4725H68.5951H68.6003C68.6687 65.5041 68.7423 65.5357 68.8107 65.562C68.8318 65.5725 68.8528 65.5777 68.8791 65.5935C68.9738 65.6303 69.0685 65.6724 69.1631 65.7092C69.3946 65.8039 69.6418 65.8986 69.9048 65.9986H69.9154L69.9259 66.0038C70.0048 66.0354 70.0889 66.0669 70.1678 66.0932H70.1784L70.1889 66.0985C70.5729 66.2405 70.9516 66.3668 71.3146 66.4825H71.3251L71.3356 66.493C71.4092 66.5193 71.4829 66.5404 71.5565 66.5667H71.567H71.5776C71.688 66.6035 71.7985 66.635 71.9089 66.6719L72.0036 66.6982C72.1351 66.735 72.2719 66.7718 72.4034 66.8086C72.477 66.8297 72.5454 66.8454 72.6085 66.8665H72.6243C73.4502 67.0927 74.2918 67.282 75.1176 67.4241H75.1282H75.1387C75.2386 67.4398 75.3491 67.4609 75.4806 67.4819H75.4964C75.6279 67.5082 75.7436 67.524 75.8435 67.5398H75.8593H75.8751C75.9908 67.5608 76.1066 67.5766 76.2275 67.5924H76.2381C77.6215 67.787 79.0312 67.887 80.4304 67.887C81.8296 67.887 83.2446 67.787 84.628 67.5976H84.6596C84.77 67.5766 84.8805 67.5608 84.991 67.545H85.0067H85.0172L110.066 42.4962C110.066 42.4962 110.066 42.4646 110.071 42.4541L110.103 42.4489Z" fill="#06171E"/>
</svg>
