<svg width="61" height="80" viewBox="0 0 61 80" fill="none" xmlns="http://www.w3.org/2000/svg">
<path d="M43.2408 19.1841L35.2754 27.1494L38.3517 30.2257L46.317 22.2603L43.2408 19.1841Z" fill="#06171E"/>
<path d="M27.146 35.2759L19.1807 43.2412L22.2569 46.3175L30.2223 38.3521L27.146 35.2759Z" fill="#06171E"/>
<path d="M38.1841 14.1252L30.2188 22.0906L33.295 25.1669L41.2604 17.2015L38.1841 14.1252Z" fill="#06171E"/>
<path d="M22.0845 30.2217L14.1191 38.187L17.1954 41.2633L25.1608 33.2979L22.0845 30.2217Z" fill="#06171E"/>
<path d="M17.1944 19.1759L14.1182 22.2522L22.0835 30.2176L25.1598 27.1413L17.1944 19.1759Z" fill="#06171E"/>
<path d="M22.253 14.1146L19.1768 17.1909L27.1421 25.1563L30.2184 22.08L22.253 14.1146Z" fill="#06171E"/>
<path d="M38.3536 30.2142L35.2773 33.2905L43.2427 41.2559L46.319 38.1796L38.3536 30.2142Z" fill="#06171E"/>
<path d="M33.295 35.2755L30.2188 38.3518L38.1841 46.3171L41.2604 43.2409L33.295 35.2755Z" fill="#06171E"/>
<path d="M41.2613 49.3956L38.1812 46.3201L30.2205 54.2808L22.2552 46.3201L19.1797 49.3956L30.2205 60.4364L41.2613 49.3956Z" fill="#06171E"/>
<path d="M14.1209 22.2552L11.0408 19.1797L0 30.2205L11.0408 41.2567L14.1209 38.1812L6.15559 30.2205L14.1209 22.2552Z" fill="#06171E"/>
<path d="M49.3958 19.1797L46.3203 22.2552L54.281 30.2205L46.3203 38.1812L49.3958 41.2567L60.4366 30.2205L49.3958 19.1797Z" fill="#06171E"/>
<path d="M38.1812 14.1209L41.2613 11.0408L30.2205 0L19.1797 11.0408L22.2552 14.1209L30.2205 6.15559L38.1812 14.1209Z" fill="#06171E"/>
<path d="M4.85278 74.2055C5.32805 73.8445 5.65249 73.3007 5.83529 72.6061L5.85359 72.5512L4.88932 72.3136L4.87105 72.373C4.75681 72.8894 4.53746 73.2778 4.22214 73.5429C3.89768 73.7988 3.50923 73.9313 3.03854 73.9313C2.65924 73.9313 2.30735 73.8354 1.97375 73.6434C1.64929 73.4515 1.41166 73.159 1.26085 72.766C1.10091 72.3776 1.02324 71.9069 1.02324 71.3859C1.02324 70.9746 1.09179 70.577 1.22431 70.1932C1.35684 69.8139 1.58532 69.5077 1.90064 69.2792C2.2251 69.0599 2.6364 68.9456 3.11167 68.9456C3.5321 68.9456 3.87482 69.0416 4.14901 69.2518C4.4232 69.4529 4.63342 69.7773 4.77965 70.2252L4.79795 70.2709L5.74846 70.0515L5.73019 69.9967C5.5474 69.4072 5.23665 68.9411 4.7888 68.6075C4.34095 68.283 3.788 68.123 3.12994 68.123C2.55871 68.123 2.02404 68.2464 1.53964 68.5023C1.06437 68.7674 0.6805 69.1512 0.424588 69.6448C0.168676 70.1383 0.0361328 70.7324 0.0361328 71.3859C0.0361328 71.9937 0.150379 72.5786 0.378872 73.0996C0.607365 73.6343 0.950124 74.0501 1.39797 74.3289C1.83668 74.6168 2.41703 74.7585 3.12079 74.7585C3.82455 74.7585 4.37752 74.5666 4.85278 74.2055Z" fill="#06171E"/>
<path d="M14.6971 73.1862C14.9622 72.679 15.0993 72.0895 15.0993 71.4451C15.0993 70.8008 14.9668 70.2341 14.72 69.7314C14.4641 69.2287 14.0893 68.8266 13.6049 68.5387C13.1205 68.2508 12.5676 68.1091 11.9644 68.1091C11.0413 68.1091 10.2781 68.4153 9.69772 69.014C9.11735 69.6126 8.82031 70.4626 8.82031 71.5183C8.82031 72.0804 8.94368 72.615 9.19959 73.1177C9.44636 73.6204 9.81654 74.0225 10.3055 74.3196C10.7899 74.6166 11.3429 74.7583 11.9552 74.7583C12.5265 74.7583 13.0611 74.6257 13.5455 74.3561C14.0391 74.1002 14.423 73.6981 14.6971 73.1862ZM11.9552 73.9311C11.3474 73.9311 10.8311 73.7118 10.4198 73.2914C10.0176 72.8618 9.81196 72.2723 9.81196 71.5274C9.81196 70.6043 10.0313 69.9279 10.4518 69.5349C10.8722 69.1465 11.384 68.9454 11.9644 68.9454C12.3848 68.9454 12.7549 69.0505 13.0885 69.2516C13.413 69.4527 13.6689 69.7452 13.8426 70.1199C14.0162 70.49 14.0985 70.9379 14.0985 71.4451C14.0985 72.2357 13.8974 72.8572 13.4998 73.2822C13.0977 73.7118 12.5767 73.9311 11.9552 73.9311Z" fill="#06171E"/>
<path d="M24.6868 68.3286H23.7637V74.7584H24.6868V68.3286Z" fill="#06171E"/>
<path d="M21.9714 74.7585L23.4201 70.673V68.3881L21.8846 72.7614C21.7612 73.1133 21.6652 73.3921 21.5967 73.6114L21.3408 72.8483L19.8053 68.3333H19.7002V70.6684L21.1214 74.7631H21.9714V74.7585Z" fill="#06171E"/>
<path d="M19.3629 68.3286H18.4307V74.7584H19.3629V68.3286Z" fill="#06171E"/>
<path d="M32.5097 71.6143C32.8707 71.235 33.0535 70.7643 33.0535 70.2159C33.0535 69.8914 32.985 69.5989 32.8524 69.3293C32.7108 69.0643 32.5371 68.8449 32.3086 68.6987C32.0893 68.5479 31.8151 68.4428 31.4998 68.3925C31.2713 68.3468 30.9377 68.324 30.5081 68.324H29.3291V69.1831H30.5767C30.956 69.1831 31.2165 69.2014 31.3581 69.2425C31.5683 69.2973 31.7374 69.4162 31.8608 69.5944C31.9933 69.7772 32.0527 69.9828 32.0527 70.2433C32.0527 70.586 31.9476 70.8511 31.7283 71.043C31.5089 71.235 31.1296 71.3309 30.5949 71.3309H29.3291V72.1992H30.5858C31.4998 72.1992 32.1578 71.9981 32.5097 71.6188V71.6143Z" fill="#06171E"/>
<path d="M28.9867 68.3286H28.0225V74.7584H28.9867V68.3286Z" fill="#06171E"/>
<path d="M39.8908 68.3286H38.8992L36.3857 74.7584H37.4048L37.6927 74.0044H37.6836L38.4056 72.0531L38.5564 71.6509L39.0911 70.2297H39.1002C39.2145 69.9144 39.3104 69.5899 39.3881 69.2792C39.4841 69.5853 39.6166 69.9555 39.7766 70.3759L40.4255 72.0531H38.7758L38.4787 72.8436H40.7271L41.4811 74.7584H42.5779L39.8908 68.3286Z" fill="#06171E"/>
<path d="M50.0449 73.127V74.7584H51V68.3286H50.0678V73.159L50.0449 73.127Z" fill="#06171E"/>
<path d="M46.7131 68.3286H45.8174V74.7584H46.7131V68.3286Z" fill="#06171E"/>
<path d="M49.7016 72.6242L47.0557 68.7444V70.3849L49.7016 74.2693V72.6242Z" fill="#06171E"/>
<path d="M59.3258 68.3286L58.0599 70.216C57.8132 70.5861 57.5938 70.938 57.4019 71.2442V71.2351L56.8672 72.0439V74.7584H57.8406V72.0439L60.4591 68.3286H59.3258Z" fill="#06171E"/>
<path d="M56.7991 70.2617L55.515 68.3286H54.3359L56.6574 71.7377L57.2012 70.8969L56.7991 70.2617Z" fill="#06171E"/>
<path d="M1.02781 79.9817V77.9664H1.66758V77.6511H0.0361328V77.9664H0.67135V79.9817H1.02781Z" fill="#06171E"/>
<path d="M4.53797 77.6511H4.24092L3.39551 79.9817H3.77024L3.95302 79.4562H4.835L5.01323 79.9817H5.38796L4.54252 77.6511H4.53797ZM4.04899 79.1455L4.38716 78.1264H4.39173L4.72533 79.1455H4.04442H4.04899Z" fill="#06171E"/>
<path d="M7.93293 78.1539C7.96949 78.1037 8.01976 78.0671 8.07917 78.0351C8.13858 78.0032 8.21168 77.9894 8.29394 77.9849C8.40819 77.9849 8.50416 78.0214 8.58184 78.0808C8.65953 78.1448 8.70981 78.2271 8.73723 78.3185H9.11194C9.07538 78.122 8.984 77.9574 8.84233 77.8295C8.70066 77.697 8.51786 77.633 8.29394 77.6284C8.11115 77.6284 7.95577 77.6741 7.83695 77.7609C7.71357 77.8432 7.62219 77.9392 7.56735 78.0488C7.53079 78.1037 7.50792 78.1814 7.48964 78.2728C7.47593 78.3642 7.4668 78.5469 7.4668 78.8166C7.4668 79.0862 7.47593 79.2644 7.48964 79.3558C7.49878 79.4061 7.50792 79.4472 7.52163 79.4792C7.53534 79.5112 7.54907 79.5432 7.56735 79.5797C7.62219 79.6894 7.71357 79.7808 7.83695 79.8631C7.96034 79.9499 8.11115 79.991 8.29394 79.9956C8.53157 79.9956 8.72807 79.9088 8.88344 79.7534C9.03882 79.5934 9.12108 79.4015 9.12108 79.1685V78.6932H8.29394V79.0268H8.7692V79.1502C8.7692 79.2964 8.71893 79.4152 8.63211 79.5021C8.54071 79.598 8.43103 79.6437 8.28937 79.6437C8.20711 79.6437 8.134 79.6254 8.0746 79.5889C8.01519 79.5569 7.96492 79.5203 7.92836 79.4701C7.88266 79.4198 7.85066 79.3558 7.83695 79.2736C7.81868 79.1913 7.80954 79.0359 7.80954 78.8075C7.80954 78.579 7.81868 78.4236 7.83695 78.3367C7.85066 78.2591 7.88266 78.1951 7.92836 78.1448L7.93293 78.1539Z" fill="#06171E"/>
<path d="M11.502 77.6511V79.9817H12.9917V79.6482H11.8538V77.6511H11.502Z" fill="#06171E"/>
<path d="M15.6429 77.6511H15.291V79.9817H15.6429V77.6511Z" fill="#06171E"/>
<path d="M18.4531 78.3229H18.4577L19.5133 79.9817H19.8469V77.6511H19.4905V79.3054H19.4859L18.4303 77.6511H18.0967V79.9817H18.4531V78.3229Z" fill="#06171E"/>
<path d="M23.7906 77.9847V77.6511H22.3008V79.9817H23.7906V79.6482H22.6572V78.9627H23.626V78.6473H22.6572V77.9847H23.7906Z" fill="#06171E"/>
<path d="M28.8172 79.4791C28.8309 79.5111 28.8446 79.543 28.8629 79.5796C28.9177 79.6893 29.0092 79.7807 29.1325 79.863C29.2559 79.9498 29.4067 79.9909 29.5895 79.9955C29.8272 79.9955 30.0237 79.9086 30.179 79.7533C30.3344 79.5933 30.4167 79.4014 30.4167 79.1683V78.6931H29.5895V79.0267H30.0648V79.1501C30.0648 79.2963 30.0145 79.4151 29.9277 79.5019C29.8363 79.5979 29.7266 79.6436 29.585 79.6436C29.5027 79.6436 29.4296 79.6253 29.3702 79.5888C29.3108 79.5568 29.2605 79.5202 29.2239 79.4699C29.1782 79.4197 29.1463 79.3557 29.1325 79.2734C29.1143 79.1912 29.1051 79.0358 29.1051 78.8073C29.1051 78.5788 29.1143 78.4234 29.1325 78.3366C29.1463 78.2589 29.1782 78.195 29.2239 78.1447C29.2605 78.0944 29.3108 78.0579 29.3702 78.0259C29.4296 77.9939 29.5027 77.9802 29.585 77.9756C29.6992 77.9756 29.7952 78.0121 29.8729 78.0716C29.9505 78.1355 30.0008 78.2178 30.0282 78.3092H30.403C30.3664 78.1127 30.275 77.9482 30.1333 77.8202C29.9917 77.6877 29.8089 77.6237 29.585 77.6191C29.4022 77.6191 29.2468 77.6648 29.128 77.7517C29.0046 77.8339 28.9132 77.9299 28.8583 78.0396C28.8218 78.0944 28.7989 78.1721 28.7807 78.2635C28.7669 78.3549 28.7578 78.5377 28.7578 78.8073C28.7578 79.0769 28.7669 79.2552 28.7807 79.3466C28.7898 79.3968 28.7989 79.4379 28.8126 79.4699L28.8172 79.4791Z" fill="#06171E"/>
<path d="M32.7794 79.4792C32.7932 79.5112 32.8069 79.5432 32.8251 79.5797C32.88 79.6894 32.9714 79.7808 33.0993 79.8631C33.2227 79.9499 33.3735 79.991 33.5563 79.9956C33.7437 79.9956 33.8945 79.9453 34.0179 79.8631C34.1412 79.7808 34.2281 79.6848 34.2829 79.5797C34.324 79.5249 34.3515 79.4472 34.3652 79.3558C34.3789 79.2598 34.388 79.0816 34.388 78.8166C34.388 78.5515 34.3789 78.3642 34.3652 78.2728C34.3515 78.1814 34.324 78.1082 34.2829 78.0488C34.2281 77.9392 34.1412 77.8432 34.0179 77.7609C33.8945 77.6741 33.7391 77.633 33.5563 77.6284C33.3735 77.6284 33.2182 77.6741 33.0993 77.7609C32.976 77.8432 32.8845 77.9392 32.8251 78.0488C32.7886 78.1037 32.7657 78.1814 32.7475 78.2728C32.7292 78.3642 32.7246 78.5469 32.7246 78.8166C32.7246 79.0862 32.7337 79.2644 32.7475 79.3558C32.7566 79.4061 32.7657 79.4472 32.7794 79.4792ZM33.1039 78.3459C33.1176 78.2682 33.1496 78.2042 33.1953 78.1539C33.2318 78.1037 33.2821 78.0671 33.3415 78.0351C33.4009 78.0032 33.4741 77.9894 33.5563 77.9849C33.6386 77.9849 33.7117 78.0032 33.7757 78.0351C33.8351 78.0671 33.8808 78.1082 33.9173 78.1539C33.963 78.2042 33.995 78.2682 34.0133 78.3459C34.0316 78.4281 34.0362 78.5835 34.0362 78.8166C34.0362 79.0496 34.027 79.2004 34.0133 79.2827C33.995 79.365 33.963 79.4289 33.9173 79.4792C33.8808 79.5249 33.8351 79.566 33.7757 79.598C33.7117 79.6346 33.6386 79.6529 33.5563 79.6529C33.4741 79.6529 33.4009 79.6346 33.3415 79.598C33.2821 79.566 33.2318 79.5295 33.1953 79.4792C33.1496 79.4289 33.1176 79.365 33.1039 79.2827C33.0856 79.2004 33.0765 79.0451 33.0765 78.8166C33.0765 78.5881 33.0856 78.4327 33.1039 78.3459Z" fill="#06171E"/>
<path d="M38.2544 77.9847V77.6511H36.7646V79.9817H38.2544V79.6482H37.1165V78.9627H38.0853V78.6473H37.1165V77.9847H38.2544Z" fill="#06171E"/>
<path d="M41.2385 79.6481C40.9826 79.6481 40.7632 79.5704 40.5758 79.415L40.3428 79.6801C40.5895 79.8949 40.8866 80 41.2339 80C41.7686 79.9954 42.0428 79.7669 42.0519 79.3236C42.0519 79.1591 42.0016 79.0129 41.8965 78.8895C41.7914 78.7616 41.6315 78.6839 41.4121 78.6565C41.3025 78.6427 41.2156 78.629 41.1516 78.6199C41.0374 78.597 40.9551 78.5605 40.9003 78.5056C40.85 78.4508 40.8226 78.3914 40.8226 78.3228C40.8226 78.2086 40.8637 78.1263 40.9414 78.0715C41.0145 78.0167 41.106 77.9892 41.2111 77.9892C41.4213 77.9892 41.6132 78.0532 41.7868 78.1675L41.9834 77.875C41.7686 77.7196 41.5172 77.642 41.2248 77.6328C40.9826 77.6328 40.7998 77.6968 40.6672 77.8202C40.5301 77.9436 40.4662 78.1081 40.4662 78.3137C40.4662 78.4828 40.521 78.629 40.6261 78.7433C40.7312 78.8575 40.882 78.9306 41.0831 78.9672C41.1973 78.9809 41.2979 78.9992 41.3938 79.0083C41.5995 79.0449 41.7 79.15 41.6955 79.3236C41.6955 79.5339 41.5355 79.6435 41.2339 79.6481H41.2385Z" fill="#06171E"/>
<path d="M48.774 79.9817V77.6511H48.4176V78.6473H47.499V77.6511H47.1426V79.9817H47.499V78.9627H48.4176V79.9817H48.774Z" fill="#06171E"/>
<path d="M52.7176 77.9847V77.6511H51.2324V79.9817H52.7176V79.6482H51.5843V78.9627H52.5531V78.6473H51.5843V77.9847H52.7176Z" fill="#06171E"/>
<path d="M56.6344 78.3C56.6298 78.0852 56.5521 77.9207 56.4013 77.8019C56.2779 77.7013 56.1225 77.6465 55.926 77.6465H55.0166V79.9771H55.3685V78.9809H55.8209L56.3007 79.9771H56.7212L56.1819 78.9443C56.479 78.8301 56.6298 78.6153 56.6344 78.3ZM56.2048 78.5559C56.1408 78.629 56.0403 78.6701 55.9077 78.6701H55.3731V77.9618H55.926C56.0402 77.9618 56.1271 77.9847 56.1865 78.0349C56.2642 78.0898 56.3007 78.1766 56.3053 78.3C56.3053 78.4005 56.2733 78.4873 56.2094 78.5559H56.2048Z" fill="#06171E"/>
<path d="M60.4683 77.9847V77.6511H58.9785V79.9817H60.4683V79.6482H59.3304V78.9627H60.2992V78.6473H59.3304V77.9847H60.4683Z" fill="#06171E"/>
</svg>
